<?xml version="1.0" encoding="UTF-8"?>
<svg version="1.1" xmlns="http://www.w3.org/2000/svg" width="1000" height="1000">
<path d="M0 0 C330 0 660 0 1000 0 C1000 330 1000 660 1000 1000 C670 1000 340 1000 0 1000 C0 670 0 340 0 0 Z " fill="#CAF5BD" transform="translate(0,0)"/>
<path d="M0 0 C0.61875 0.33 1.2375 0.66 1.875 1 C1.875 1.66 1.875 2.32 1.875 3 C3.855 3.99 3.855 3.99 5.875 5 C5.875 5.99 5.875 6.98 5.875 8 C6.535 8 7.195 8 7.875 8 C8.17196767 15.11622535 8.28488004 21.41281401 5.62890625 28.09765625 C4.85791683 30.04310625 4.34239346 31.96252755 3.875 34 C3.215 34 2.555 34 1.875 34 C1.730625 35.0725 1.58625 36.145 1.4375 37.25 C1.03750558 39.91662949 0.59908076 42.41399729 -0.125 45 C-0.785 45 -1.445 45 -2.125 45 C-2.455 46.98 -2.785 48.96 -3.125 51 C-0.51971692 49.94017206 2.08440298 48.87767659 4.6875 47.8125 C5.85031494 47.33756104 5.85031494 47.33756104 7.03662109 46.85302734 C11.41605703 45.05229937 15.7246684 43.1640043 20 41.125 C24.03532736 39.24595444 27.4391601 38.29572266 31.875 38 C31.875 37.34 31.875 36.68 31.875 36 C35.75184087 34.80712589 38.79121923 34 42.875 34 C42.875 33.34 42.875 32.68 42.875 32 C46.505 31.34 50.135 30.68 53.875 30 C53.875 29.34 53.875 28.68 53.875 28 C55.29038717 27.66127487 56.70737963 27.32925376 58.125 27 C58.91390625 26.814375 59.7028125 26.62875 60.515625 26.4375 C62.875 26 62.875 26 66.875 26 C66.875 25.34 66.875 24.68 66.875 24 C67.81601562 23.80664062 68.75703125 23.61328125 69.7265625 23.4140625 C70.97179687 23.15367187 72.21703125 22.89328125 73.5 22.625 C74.72976563 22.36976563 75.95953125 22.11453125 77.2265625 21.8515625 C80.53955286 21.07829494 83.66201396 20.10717762 86.875 19 C94.85534526 16.66401658 102.57343752 15.42685339 110.875 15 C110.875 14.34 110.875 13.68 110.875 13 C111.65738037 12.91435791 112.43976074 12.82871582 113.24584961 12.74047852 C116.76858015 12.35232556 120.29053141 11.9575043 123.8125 11.5625 C125.04419922 11.42779297 126.27589844 11.29308594 127.54492188 11.15429688 C128.71474609 11.02216797 129.88457031 10.89003906 131.08984375 10.75390625 C132.17386475 10.63345947 133.25788574 10.5130127 134.37475586 10.38891602 C136.80970137 10.26197197 136.80970137 10.26197197 137.875 9 C140.00444827 8.71215526 142.14202737 8.48405793 144.28125 8.28125 C145.58191406 8.15363281 146.88257813 8.02601563 148.22265625 7.89453125 C150.30312733 7.69608632 152.3837402 7.49917276 154.46435547 7.30224609 C156.46616279 7.11130447 158.46746689 6.91510979 160.46875 6.71875 C161.67208984 6.60466797 162.87542969 6.49058594 164.11523438 6.37304688 C166.78037854 6.2966259 166.78037854 6.2966259 167.875 5 C175.70059447 4.30817208 181.44766035 4.35043515 187.875 9 C188.6175 9.268125 189.36 9.53625 190.125 9.8125 C193.1544993 11.86823167 193.80081354 14.60783222 194.875 18 C195.01141523 24.13868557 191.122045 29.04357314 187.875 34 C187.1634375 35.08861328 187.1634375 35.08861328 186.4375 36.19921875 C185.31523038 37.84588221 184.10313856 39.43071184 182.875 41 C182.215 41 181.555 41 180.875 41 C180.75125 41.639375 180.6275 42.27875 180.5 42.9375 C180.190625 43.9584375 180.190625 43.9584375 179.875 45 C179.215 45.33 178.555 45.66 177.875 46 C177.545 46.66 177.215 47.32 176.875 48 C175.875 50 175.875 50 173.875 51 C173.545 51.99 173.215 52.98 172.875 54 C174.36 53.505 174.36 53.505 175.875 53 C177.43618428 52.93259135 179.0000252 52.91485544 180.5625 52.9375 C181.77486328 52.95103516 181.77486328 52.95103516 183.01171875 52.96484375 C183.62660156 52.97644531 184.24148438 52.98804688 184.875 53 C184.875 52.34 184.875 51.68 184.875 51 C186.020896 50.91435791 187.16679199 50.82871582 188.34741211 50.74047852 C192.5837715 50.42265371 196.81965567 50.098846 201.05541992 49.77319336 C202.89155805 49.63287748 204.72782229 49.49420206 206.56420898 49.35717773 C209.19810008 49.16036418 211.83148683 48.95772713 214.46484375 48.75390625 C215.29088608 48.6934462 216.11692841 48.63298615 216.96800232 48.57069397 C220.73449981 48.60524015 220.73449981 48.60524015 223.875 47 C226.71467713 46.74998495 229.52889478 46.56899607 232.375 46.4375 C233.24761475 46.3957666 234.12022949 46.3540332 235.01928711 46.31103516 C242.4912274 45.99057557 249.95921318 45.89291401 257.4375 45.875 C258.52546875 45.87040771 259.6134375 45.86581543 260.734375 45.86108398 C261.75144531 45.86309814 262.76851562 45.8651123 263.81640625 45.8671875 C264.72076416 45.86831543 265.62512207 45.86944336 266.55688477 45.87060547 C269.27266487 46.0221972 271.25111698 46.56808099 273.5 48.125 C275.52883434 50.89159229 275.55854377 53.64556395 275.875 57 C276.535 57 277.195 57 277.875 57 C278.49214585 62.86288556 276.53037274 67.85400392 273.875 73 C273.215 73.33 272.555 73.66 271.875 74 C271.730625 74.928125 271.58625 75.85625 271.4375 76.8125 C270.84586581 80.16509372 269.97131008 81.42293614 267.875 84 C272.12954003 83.7393786 276.38364646 83.47274099 280.63745117 83.20043945 C282.08558841 83.10860002 283.53383225 83.01842625 284.98217773 82.92993164 C287.06003399 82.80268694 289.13743733 82.66952119 291.21484375 82.53515625 C292.46644287 82.456604 293.71804199 82.37805176 295.00756836 82.29711914 C297.76970765 82.3154463 297.76970765 82.3154463 298.875 81 C300.96324296 80.82201091 303.05725754 80.71147273 305.15136719 80.62695312 C305.80672455 80.59915268 306.46208191 80.57135223 307.13729858 80.54270935 C308.56518713 80.48276842 309.99317013 80.42504707 311.4212265 80.36924744 C313.68281286 80.28082234 315.94409406 80.18664625 318.2053833 80.09094238 C323.01171 79.888642 327.81833476 79.69406238 332.625 79.5 C338.18057128 79.27498423 343.7359893 79.04681643 349.29117584 78.81248474 C351.51616073 78.72002632 353.74130198 78.63241303 355.9664917 78.54504395 C357.33802191 78.48793244 358.7095434 78.4306111 360.08105469 78.37304688 C361.27494812 78.32498901 362.46884155 78.27693115 363.69891357 78.22741699 C366.78484767 78.07429836 366.78484767 78.07429836 369.41062927 77.48774719 C372.34575642 76.90682809 375.10680625 76.85017127 378.09887695 76.82299805 C379.33398514 76.81016281 380.56909332 76.79732758 381.84162903 76.78410339 C383.18217565 76.77593487 384.52272685 76.76849135 385.86328125 76.76171875 C386.54376211 76.75764322 387.22424297 76.7535677 387.92534447 76.74936867 C391.5266425 76.72856623 395.12790308 76.71423896 398.72924805 76.70483398 C402.43126015 76.69377563 406.13267023 76.65936652 409.8344698 76.61966228 C412.69739331 76.59341191 415.56017499 76.58513482 418.42320824 76.58155251 C419.78706114 76.57670901 421.15090866 76.56515937 422.51464272 76.54651451 C431.06075146 76.43692375 437.93397267 76.48448793 444.53804016 82.51982117 C447.35642689 85.64012161 447.01103576 89.48298176 447 93.5 C447.00257813 94.4384375 447.00515625 95.376875 447.0078125 96.34375 C446.88892868 98.7214263 446.55051722 100.72683096 445.875 103 C445.215 103 444.555 103 443.875 103 C443.80667969 103.54011719 443.73835937 104.08023438 443.66796875 104.63671875 C442.55968422 107.93973421 440.43884306 110.22655291 438.1875 112.8125 C437.73342773 113.34367432 437.27935547 113.87484863 436.81152344 114.42211914 C435.50311791 115.95131227 434.1891922 117.47577708 432.875 119 C432.28589844 119.71414062 431.69679688 120.42828125 431.08984375 121.1640625 C428.77007141 123.97253354 426.45244614 126.44590326 423.625 128.75 C420.73840001 130.88779286 420.73840001 130.88779286 418.875 134 C418.215 134 417.555 134 416.875 134 C416.6171875 134.57234375 416.359375 135.1446875 416.09375 135.734375 C414.76134058 138.21128995 413.22443882 140.1341166 411.375 142.25 C410.7665625 142.95640625 410.158125 143.6628125 409.53125 144.390625 C407.875 146 407.875 146 405.875 146 C405.215 147.32 404.555 148.64 403.875 150 C403.215 150 402.555 150 401.875 150 C401.63394531 150.72316406 401.39289062 151.44632813 401.14453125 152.19140625 C399.70105919 155.38481058 397.95827069 157.38872211 395.5625 159.9375 C394.36173828 161.23880859 394.36173828 161.23880859 393.13671875 162.56640625 C392.39035156 163.36949219 391.64398437 164.17257812 390.875 165 C386.72854276 169.38746687 386.72854276 169.38746687 384.875 175 C385.46539063 175.27199219 386.05578125 175.54398438 386.6640625 175.82421875 C388.82602434 176.97395464 390.42654657 178.19022571 392.25 179.8125 C394.46238966 181.7648866 396.69206756 183.66198164 399 185.5 C402.00181292 188.11027211 404.33208506 190.94850207 406.875 194 C408.87165598 195.67067133 410.87151034 197.33752986 412.875 199 C416.875 203.52631579 416.875 203.52631579 416.875 206 C417.865 206.33 418.855 206.66 419.875 207 C423.78898865 210.73092904 427.38629888 214.70684048 428.875 220 C429.535 220 430.195 220 430.875 220 C431.101875 220.556875 431.32875 221.11375 431.5625 221.6875 C433.23830965 224.64011701 435.46877675 226.60416333 437.875 229 C439.48516543 230.83091391 441.06897907 232.68535394 442.625 234.5625 C443.40359375 235.49191406 444.1821875 236.42132813 444.984375 237.37890625 C446.74376599 239.81806194 447.18659971 241.18903215 447.875 244 C448.865 244.33 449.855 244.66 450.875 245 C452.91796875 247.43359375 452.91796875 247.43359375 455.0625 250.4375 C456.13564453 251.92056641 456.13564453 251.92056641 457.23046875 253.43359375 C458.875 256 458.875 256 458.875 258 C459.535 258 460.195 258 460.875 258 C461.16375 258.639375 461.4525 259.27875 461.75 259.9375 C462.70323451 262.15206079 462.70323451 262.15206079 464.875 263 C469.23552202 270.00326264 469.23552202 270.00326264 469.875 274 C470.535 274 471.195 274 471.875 274 C474.55759184 281.71245155 475.10315403 289.33313418 471.875 297 C471.215 297 470.555 297 469.875 297 C469.875 297.99 469.875 298.98 469.875 300 C468.225 300.66 466.575 301.32 464.875 302 C464.875 302.66 464.875 303.32 464.875 304 C461.96899739 305.25664978 460.07895416 306 456.875 306 C456.875 306.66 456.875 307.32 456.875 308 C451.88898756 308.95731439 446.99519589 309.27334807 441.9375 309.5 C436.51859714 309.74405401 431.23421515 310.14366735 425.875 311 C426.205 311.598125 426.535 312.19625 426.875 312.8125 C427.875 315 427.875 315 427.875 318 C428.535 318 429.195 318 429.875 318 C430.01309082 318.5765332 430.15118164 319.15306641 430.29345703 319.74707031 C430.84474014 321.88277161 431.48337603 323.95448126 432.1796875 326.046875 C432.43363281 326.81 432.68757812 327.573125 432.94921875 328.359375 C433.21347656 329.14828125 433.47773437 329.9371875 433.75 330.75 C434.00652344 331.5234375 434.26304687 332.296875 434.52734375 333.09375 C435.76715485 336.80695309 437.04453188 340.49605659 438.43359375 344.15625 C439.76056533 347.65368101 440.94742003 351.17832622 442.0625 354.75 C442.40667969 355.83796875 442.75085938 356.9259375 443.10546875 358.046875 C443.875 361 443.875 361 443.875 365 C444.535 365 445.195 365 445.875 365 C446.205 367.97 446.535 370.94 446.875 374 C447.535 374 448.195 374 448.875 374 C449.16503906 375.19496094 449.16503906 375.19496094 449.4609375 376.4140625 C449.72132813 377.47367188 449.98171875 378.53328125 450.25 379.625 C450.63285156 381.19121094 450.63285156 381.19121094 451.0234375 382.7890625 C452.11053445 386.88811614 453.47569796 390.85824573 454.875 394.859375 C456.85498376 400.58276557 458.46112222 406.1635386 459.48046875 412.13671875 C459.69936674 414.00613146 459.69936674 414.00613146 460.875 415 C460.94744053 417.01964199 460.95877188 419.04167124 460.9375 421.0625 C460.92847656 422.16722656 460.91945313 423.27195312 460.91015625 424.41015625 C460.89855469 425.26480469 460.88695312 426.11945313 460.875 427 C460.215 427 459.555 427 458.875 427 C458.83375 428.051875 458.7925 429.10375 458.75 430.1875 C457.59554402 435.21762963 456.07326669 436.1725959 451.875 439 C451.215 439 450.555 439 449.875 439 C449.875 439.66 449.875 440.32 449.875 441 C446.07149826 442.21944331 442.40746937 442.13286912 438.4375 442.125 C437.13941406 442.12757813 435.84132813 442.13015625 434.50390625 442.1328125 C431.47388459 442.02191827 428.81001362 441.71254666 425.875 441 C425.875 440.34 425.875 439.68 425.875 439 C424.658125 438.855625 423.44125 438.71125 422.1875 438.5625 C419.71967865 438.26548787 417.42402437 437.892158 415 437.3125 C414.29875 437.209375 413.5975 437.10625 412.875 437 C412.215 437.66 411.555 438.32 410.875 439 C410.875 439.99 410.875 440.98 410.875 442 C410.215 442 409.555 442 408.875 442 C408.771875 442.99 408.66875 443.98 408.5625 445 C407.96435084 449.2650636 406.46584107 453.02289732 404.875 457 C404.545 457.99 404.215 458.98 403.875 460 C403.215 460 402.555 460 401.875 460 C401.215 462.64 400.555 465.28 399.875 468 C399.215 468 398.555 468 397.875 468 C397.689375 468.9590625 397.689375 468.9590625 397.5 469.9375 C397.29375 470.618125 397.0875 471.29875 396.875 472 C395.885 472.495 395.885 472.495 394.875 473 C393.74149466 475.01669827 393.74149466 475.01669827 392.875 477 C392.215 477 391.555 477 390.875 477 C390.545 477.99 390.215 478.98 389.875 480 C387.8125 480.6875 387.8125 480.6875 385.875 481 C385.875 481.66 385.875 482.32 385.875 483 C385.09253906 483.20496094 384.31007813 483.40992188 383.50390625 483.62109375 C382.49199219 483.89050781 381.48007812 484.15992188 380.4375 484.4375 C379.42816406 484.70433594 378.41882813 484.97117187 377.37890625 485.24609375 C374.95747999 485.75978077 374.95747999 485.75978077 373.875 487 C371.375 487.125 371.375 487.125 368.875 487 C368.545 486.67 368.215 486.34 367.875 486 C366.31912257 485.70356264 364.75264813 485.46219106 363.18359375 485.24609375 C362.23935547 485.11396484 361.29511719 484.98183594 360.32226562 484.84570312 C359.32904297 484.71099609 358.33582031 484.57628906 357.3125 484.4375 C356.31541016 484.29892578 355.31832031 484.16035156 354.29101562 484.01757812 C351.81950284 483.67464094 349.34751455 483.33562546 346.875 483 C346.875 482.34 346.875 481.68 346.875 481 C346.215 481 345.555 481 344.875 481 C344.81441406 481.67546875 344.75382813 482.3509375 344.69140625 483.046875 C344.60761719 483.93890625 344.52382813 484.8309375 344.4375 485.75 C344.35628906 486.63171875 344.27507813 487.5134375 344.19140625 488.421875 C343.91261535 490.69350452 343.48709423 492.79851823 342.875 495 C342.215 495 341.555 495 340.875 495 C340.215 497.97 339.555 500.94 338.875 504 C338.215 504 337.555 504 336.875 504 C336.75125 504.969375 336.6275 505.93875 336.5 506.9375 C336.29375 507.948125 336.0875 508.95875 335.875 510 C334.885 510.495 334.885 510.495 333.875 511 C332.82691959 512.97522846 331.8229589 514.97481509 330.875 517 C330.215 517 329.555 517 328.875 517 C328.73964844 517.88558594 328.73964844 517.88558594 328.6015625 518.7890625 C327.69010173 521.56264741 326.49231009 522.53093803 324.25 524.375 C323.53457031 524.97441406 322.81914063 525.57382812 322.08203125 526.19140625 C320.98955078 527.08666016 320.98955078 527.08666016 319.875 528 C318.55921346 529.10024818 317.24643315 530.20410734 315.9375 531.3125 C315.37160156 531.78300781 314.80570313 532.25351562 314.22265625 532.73828125 C312.74054616 533.97950473 312.74054616 533.97950473 311.875 536 C311.215 536 310.555 536 309.875 536 C308.07195845 541.30094216 306.36776376 546.60308488 304.875 552 C304.215 552 303.555 552 302.875 552 C302.730625 552.763125 302.58625 553.52625 302.4375 554.3125 C301.875 557 301.875 557 300.875 560 C300.215 560 299.555 560 298.875 560 C298.730625 560.763125 298.58625 561.52625 298.4375 562.3125 C297.875 565 297.875 565 296.875 568 C296.215 568 295.555 568 294.875 568 C294.606875 568.886875 294.33875 569.77375 294.0625 570.6875 C292.9499365 573.7909666 291.77304222 576.31110685 289.875 579 C289.215 579 288.555 579 287.875 579 C287.75125 580.0209375 287.75125 580.0209375 287.625 581.0625 C286.65166838 584.87471553 284.88242896 587.61246363 282.875 591 C282.545 591.99 282.215 592.98 281.875 594 C281.215 594.33 280.555 594.66 279.875 595 C279.15340576 596.64363134 278.48148579 598.31050386 277.875 600 C277.215 600 276.555 600 275.875 600 C275.648125 600.721875 275.42125 601.44375 275.1875 602.1875 C273.60573192 605.57700303 271.5759863 607.42464097 268.875 610 C268.00945599 611.05325235 267.15521741 612.11589638 266.3125 613.1875 C264.10099894 615.73923199 262.8711803 616.71592273 259.875 618 C259.545 618.66 259.215 619.32 258.875 620 C258.215 620 257.555 620 256.875 620 C256.215 622.31 255.555 624.62 254.875 627 C254.215 627 253.555 627 252.875 627 C252.606875 627.845625 252.33875 628.69125 252.0625 629.5625 C248.50279741 639.86690224 248.50279741 639.86690224 244.875 643 C244.545 643.66 244.215 644.32 243.875 645 C243.215 645 242.555 645 241.875 645 C241.606875 645.598125 241.33875 646.19625 241.0625 646.8125 C239.87582594 648.99847854 238.77900887 650.41332594 236.875 652 C236.215 652 235.555 652 234.875 652 C234.875 652.66 234.875 653.32 234.875 654 C232.565 654.66 230.255 655.32 227.875 656 C227.875 656.66 227.875 657.32 227.875 658 C220.26146243 660.06827652 213.17466009 660.23812461 205.3125 660.125 C204.11302734 660.11597656 202.91355469 660.10695313 201.67773438 660.09765625 C198.74327691 660.07427412 195.80924766 660.0415028 192.875 660 C192.875 660.66 192.875 661.32 192.875 662 C191.740625 662.28875 190.60625 662.5775 189.4375 662.875 C188.261875 663.24625 187.08625 663.6175 185.875 664 C185.545 664.66 185.215 665.32 184.875 666 C183.09765625 666.5625 183.09765625 666.5625 180.9375 667 C177.96689285 667.60382577 177.08808826 667.78691174 174.875 670 C173.885 670 172.895 670 171.875 670 C171.545 670.99 171.215 671.98 170.875 673 C167.8125 674.1875 167.8125 674.1875 164.875 675 C164.875 675.66 164.875 676.32 164.875 677 C162.46160204 678.00858422 160.04481325 679.00702673 157.625 680 C156.94308594 680.28617188 156.26117187 680.57234375 155.55859375 680.8671875 C152.06084265 682.29345494 149.70599811 683 145.875 683 C145.875 683.66 145.875 684.32 145.875 685 C145.05515625 685.19335938 144.2353125 685.38671875 143.390625 685.5859375 C141.77414062 685.97652344 141.77414062 685.97652344 140.125 686.375 C139.05765625 686.63023437 137.9903125 686.88546875 136.890625 687.1484375 C133.94704412 687.87800234 133.94704412 687.87800234 131.671875 689.1015625 C129.875 690 129.875 690 126.875 690 C126.875 690.66 126.875 691.32 126.875 692 C125.31383181 692.33951619 123.75098662 692.67132544 122.1875 693 C121.31738281 693.185625 120.44726562 693.37125 119.55078125 693.5625 C116.93787036 693.98972047 114.51686962 694.07616201 111.875 694 C111.875 694.66 111.875 695.32 111.875 696 C110.31383181 696.33951619 108.75098662 696.67132544 107.1875 697 C106.31738281 697.185625 105.44726562 697.37125 104.55078125 697.5625 C101.93787036 697.98972047 99.51686962 698.07616201 96.875 698 C96.875 698.66 96.875 699.32 96.875 700 C95.89917969 700.12117187 94.92335938 700.24234375 93.91796875 700.3671875 C92.64566406 700.53476562 91.37335938 700.70234375 90.0625 700.875 C88.79792969 701.03742187 87.53335937 701.19984375 86.23046875 701.3671875 C82.75800683 701.79568453 82.75800683 701.79568453 79.875 704 C77.81812467 704.19696481 75.75282521 704.31204753 73.6875 704.375 C68.49702028 704.6793091 65.27212289 705.52943674 60.86328125 708.14453125 C57.05392318 709.78352814 52.93771693 709.29970863 48.875 709 C48.875 709.66 48.875 710.32 48.875 711 C45.36723216 712.60355101 42.73145121 713.22036864 38.875 713 C38.875 713.66 38.875 714.32 38.875 715 C36.64649723 715.33774332 34.41716533 715.6700187 32.1875 716 C30.94613281 716.185625 29.70476562 716.37125 28.42578125 716.5625 C25.51613629 716.92100411 22.79799978 717.08942256 19.875 717 C19.875 717.66 19.875 718.32 19.875 719 C14.88147582 719.66580322 10.16208097 720.02236141 5.125 719.875 C0.67687472 719.8188368 -3.07830304 720.36201343 -7.375 721.5 C-12.95818463 722.92069145 -18.0492137 723.20227392 -23.7980957 723.08422852 C-29.23864345 722.97365094 -34.62919154 723.13778349 -40.0625 723.4375 C-40.85035889 723.47697754 -41.63821777 723.51645508 -42.44995117 723.55712891 C-46.09203323 723.44980175 -46.09203323 723.44980175 -49.125 725 C-50.58831621 725.14456186 -52.05790676 725.2269601 -53.52734375 725.28125 C-54.86249023 725.33732422 -54.86249023 725.33732422 -56.22460938 725.39453125 C-57.16111328 725.42933594 -58.09761719 725.46414063 -59.0625 725.5 C-60.90510759 725.56876352 -62.74757289 725.64148918 -64.58984375 725.71875 C-65.410896 725.74904297 -66.23194824 725.77933594 -67.07788086 725.81054688 C-69.18962166 725.8811079 -69.18962166 725.8811079 -71.125 727 C-73.52972044 727.02877667 -75.89941012 726.99692078 -78.30078125 726.9140625 C-79.02178513 726.89282318 -79.742789 726.87158386 -80.48564148 726.84970093 C-82.01988406 726.80336117 -83.55405009 726.75442682 -85.08813477 726.703125 C-87.3899924 726.6265798 -89.69197241 726.55865104 -91.99414062 726.4921875 C-116.52179246 725.75066542 -116.52179246 725.75066542 -123.125 723 C-125.20238725 722.57647713 -125.20238725 722.57647713 -127.26953125 722.40234375 C-128.02943359 722.32306641 -128.78933594 722.24378906 -129.57226562 722.16210938 C-130.74305664 722.05092773 -130.74305664 722.05092773 -131.9375 721.9375 C-133.4857302 721.78047078 -135.03390782 721.62292218 -136.58203125 721.46484375 C-137.33307129 721.38991699 -138.08411133 721.31499023 -138.85791016 721.23779297 C-142.28743238 720.87807354 -145.7050084 720.44066026 -149.125 720 C-149.125 719.34 -149.125 718.68 -149.125 718 C-153.745 717.67 -158.365 717.34 -163.125 717 C-163.125 716.34 -163.125 715.68 -163.125 715 C-164.12466797 714.96132812 -164.12466797 714.96132812 -165.14453125 714.921875 C-172.3894471 714.47603402 -178.43762981 712.78101468 -185.125 710 C-185.125 709.34 -185.125 708.68 -185.125 708 C-186.094375 707.9175 -187.06375 707.835 -188.0625 707.75 C-192.79619101 707.1000875 -196.86484407 705.07694677 -201.125 703 C-201.125 702.34 -201.125 701.68 -201.125 701 C-202.15625 700.7525 -203.1875 700.505 -204.25 700.25 C-208.05774148 699.1642896 -210.98902115 697.44759325 -214.125 695 C-214.125 694.34 -214.125 693.68 -214.125 693 C-214.65867187 692.94328125 -215.19234375 692.8865625 -215.7421875 692.828125 C-219.23929304 691.6127375 -221.59665531 689.24012201 -224.25 686.75 C-224.82258545 686.2149585 -225.3951709 685.67991699 -225.98510742 685.12866211 C-235.35369053 676.15407874 -242.95379573 665.39431849 -249.125 654 C-249.125 653.34 -249.125 652.68 -249.125 652 C-249.785 652 -250.445 652 -251.125 652 C-251.125 651.34 -251.125 650.68 -251.125 650 C-251.785 650 -252.445 650 -253.125 650 C-253.785 646.7 -254.445 643.4 -255.125 640 C-255.785 640 -256.445 640 -257.125 640 C-257.32996094 638.86820313 -257.53492188 637.73640625 -257.74609375 636.5703125 C-258.01806972 635.08851239 -258.29021387 633.60674315 -258.5625 632.125 C-258.76456055 631.00544922 -258.76456055 631.00544922 -258.97070312 629.86328125 C-259.67036611 625.81466622 -259.67036611 625.81466622 -261.125 622 C-261.49694794 618.59581422 -261.59904407 615.17035091 -261.75 611.75 C-261.79503662 610.76177246 -261.84007324 609.77354492 -261.88647461 608.75537109 C-262.18686111 601.08770901 -261.97185331 593.63470835 -261.125 586 C-260.465 586 -259.805 586 -259.125 586 C-259.16625 585.071875 -259.2075 584.14375 -259.25 583.1875 C-259.2712373 578.0268365 -258.14543018 573.03837402 -257.125 568 C-256.465 568 -255.805 568 -255.125 568 C-255.0321875 566.4221875 -255.0321875 566.4221875 -254.9375 564.8125 C-253.9051856 556.41933509 -249.9500654 548.44881156 -246.125 541 C-245.465 541 -244.805 541 -244.125 541 C-244.01285156 540.29488281 -243.90070313 539.58976563 -243.78515625 538.86328125 C-243.06185092 535.72610488 -241.93042309 533.09872094 -240.5625 530.1875 C-240.10746094 529.21167969 -239.65242188 528.23585938 -239.18359375 527.23046875 C-238.65958984 526.12638672 -238.65958984 526.12638672 -238.125 525 C-237.465 525 -236.805 525 -236.125 525 C-235.9084375 524.1028125 -235.9084375 524.1028125 -235.6875 523.1875 C-235.2377561 521.43849596 -234.69607659 519.71322977 -234.125 518 C-233.465 518 -232.805 518 -232.125 518 C-232.00949108 509.32399634 -231.90339527 500.61155926 -233.125 492 C-233.455 491.67 -233.785 491.34 -234.125 491 C-234.24191827 489.6268934 -234.29220073 488.24801285 -234.31445312 486.87011719 C-234.33117065 485.99119812 -234.34788818 485.11227905 -234.3651123 484.20672607 C-234.37868774 483.24647522 -234.39226318 482.28622437 -234.40625 481.296875 C-234.42465942 480.30810364 -234.44306885 479.31933228 -234.46203613 478.30059814 C-234.52097885 475.11712809 -234.57358962 471.93360002 -234.625 468.75 C-234.85840317 451.71100592 -234.85840317 451.71100592 -235.91552734 434.71044922 C-236.25111644 430.36812968 -236.23324134 426.03996476 -236.1875 421.6875 C-236.18298828 420.83994141 -236.17847656 419.99238281 -236.17382812 419.11914062 C-236.16230414 417.0793947 -236.14438456 415.03968637 -236.125 413 C-237.05119141 412.83564453 -237.05119141 412.83564453 -237.99609375 412.66796875 C-243.09409226 411.71354894 -247.93897749 410.52665659 -252.82421875 408.78125 C-258.48836137 406.85794181 -264.20050075 405.50252881 -270.0625 404.375 C-270.74634766 404.2409375 -271.43019531 404.106875 -272.13476562 403.96875 C-273.79765383 403.64314951 -275.46125361 403.32118656 -277.125 403 C-277.125 402.34 -277.125 401.68 -277.125 401 C-277.93324219 400.93941406 -278.74148438 400.87882812 -279.57421875 400.81640625 C-280.64285156 400.73261719 -281.71148437 400.64882813 -282.8125 400.5625 C-283.86824219 400.48128906 -284.92398438 400.40007812 -286.01171875 400.31640625 C-288.77586297 400.03548319 -291.41445741 399.59843148 -294.125 399 C-294.125 398.34 -294.125 397.68 -294.125 397 C-295.135625 396.9175 -296.14625 396.835 -297.1875 396.75 C-302.79910215 395.92075515 -306.63473999 393.5284718 -310.5625 389.5 C-312.88117334 384.30617172 -312.97865081 379.59365923 -312.125 374 C-310.68610969 370.31363943 -308.88115115 367.80187893 -305.234375 366.13671875 C-303.3125 365.5625 -303.3125 365.5625 -300.125 365 C-300.125 364.34 -300.125 363.68 -300.125 363 C-297.815 362.34 -295.505 361.68 -293.125 361 C-293.125 360.34 -293.125 359.68 -293.125 359 C-283.71497722 354.59225513 -283.71497722 354.59225513 -279.125 354 C-279.125 353.34 -279.125 352.68 -279.125 352 C-276.155 351.34 -273.185 350.68 -270.125 350 C-270.125 349.34 -270.125 348.68 -270.125 348 C-266.825 347.34 -263.525 346.68 -260.125 346 C-260.125 345.34 -260.125 344.68 -260.125 344 C-256.825 343.01 -253.525 342.02 -250.125 341 C-250.7746875 340.02417969 -251.424375 339.04835938 -252.09375 338.04296875 C-252.93785854 336.75804797 -253.78158894 335.47287871 -254.625 334.1875 C-255.05425781 333.54490234 -255.48351562 332.90230469 -255.92578125 332.24023438 C-259.125 327.33984375 -259.125 327.33984375 -259.125 324 C-259.785 324 -260.445 324 -261.125 324 C-261.96526396 322.23244474 -262.79698722 320.46082737 -263.625 318.6875 C-264.32109375 317.20830078 -264.32109375 317.20830078 -265.03125 315.69921875 C-266.125 313 -266.125 313 -266.125 310 C-266.785 310 -267.445 310 -268.125 310 C-269.38164978 307.09399739 -270.125 305.20395416 -270.125 302 C-270.785 302 -271.445 302 -272.125 302 C-272.30675781 301.443125 -272.48851562 300.88625 -272.67578125 300.3125 C-273.91191461 296.55972591 -275.16664393 292.82171772 -276.5625 289.125 C-276.80484375 288.48304688 -277.0471875 287.84109375 -277.296875 287.1796875 C-277.92863905 285.51683684 -278.56487602 283.85568486 -279.203125 282.1953125 C-279.56921875 281.22335937 -279.9353125 280.25140625 -280.3125 279.25 C-280.65667969 278.34765625 -281.00085938 277.4453125 -281.35546875 276.515625 C-282.125 274 -282.125 274 -282.125 270 C-282.785 270 -283.445 270 -284.125 270 C-284.62 266.04 -284.62 266.04 -285.125 262 C-285.785 262 -286.445 262 -287.125 262 C-288.13882963 258.3791799 -288.62397691 254.72188582 -289.125 251 C-289.785 251 -290.445 251 -291.125 251 C-291.30675781 250.38253906 -291.48851562 249.76507813 -291.67578125 249.12890625 C-293.38220447 243.37957263 -295.19154726 237.67694634 -297.125 232 C-297.785 232 -298.445 232 -299.125 232 C-299.32101608 230.25093341 -299.50647403 228.50068154 -299.6875 226.75 C-299.79191406 225.77546875 -299.89632812 224.8009375 -300.00390625 223.796875 C-300.11474468 221.2368648 -299.90238092 219.41851841 -299.125 217 C-298.465 217 -297.805 217 -297.125 217 C-297.021875 216.401875 -296.91875 215.80375 -296.8125 215.1875 C-295.99147561 212.57514967 -295.34284974 211.60602912 -293.125 210 C-289.9375 209.3125 -289.9375 209.3125 -287.125 209 C-287.125 208.34 -287.125 207.68 -287.125 207 C-284.485 207 -281.845 207 -279.125 207 C-279.125 207.66 -279.125 208.32 -279.125 209 C-278.196875 209.144375 -277.26875 209.28875 -276.3125 209.4375 C-273.125 210 -273.125 210 -270.125 211 C-270.125 211.66 -270.125 212.32 -270.125 213 C-269.26132812 213.26683594 -268.39765625 213.53367187 -267.5078125 213.80859375 C-264.15579064 214.98915572 -261.14971 216.42320081 -258 218.0625 C-254.723178 219.76761476 -251.76488726 221.29466299 -248.125 222 C-248.125 222.66 -248.125 223.32 -248.125 224 C-246.5471875 224.2165625 -246.5471875 224.2165625 -244.9375 224.4375 C-241.97039451 224.87526966 -239.05705634 225.37804866 -236.125 226 C-236.125 226.66 -236.125 227.32 -236.125 228 C-235.135 228 -234.145 228 -233.125 228 C-233.06965088 226.98164063 -233.01430176 225.96328125 -232.95727539 224.9140625 C-232.74947625 221.10449688 -232.53799027 217.29514305 -232.32543945 213.48583984 C-232.23427764 211.84299097 -232.14409081 210.20008768 -232.05493164 208.55712891 C-231.9259602 206.18376628 -231.79338241 203.81062715 -231.66015625 201.4375 C-231.62156998 200.71320801 -231.5829837 199.98891602 -231.54322815 199.24267578 C-231.14224066 192.21819541 -230.44541744 185.68826203 -228.125 179 C-227.60892317 176.78767065 -227.13921447 174.57005703 -226.6875 172.34375 C-226.00363465 169.49431104 -225.07672366 166.77119536 -224.125 164 C-223.795 163.01 -223.465 162.02 -223.125 161 C-220.125 152 -220.125 152 -219.08984375 148.9609375 C-218.18959641 146.19823513 -217.41724618 143.43679036 -216.6875 140.625 C-215.42419391 135.94888192 -213.90841393 131.49799088 -212.125 127 C-211.29020438 124.83389632 -210.45699779 122.66717987 -209.625 120.5 C-209.19832031 119.39269531 -208.77164063 118.28539062 -208.33203125 117.14453125 C-206.90896545 113.43719154 -205.51133266 109.72120872 -204.125 106 C-203.465 106 -202.805 106 -202.125 106 C-201.465 102.7 -200.805 99.4 -200.125 96 C-199.465 96 -198.805 96 -198.125 96 C-198.00769531 95.27296875 -197.89039063 94.5459375 -197.76953125 93.796875 C-197.11514484 90.95723458 -196.16876696 88.81976898 -194.8125 86.25 C-192.39687563 81.57323887 -190.21354972 76.83050048 -188.125 72 C-187.465 72 -186.805 72 -186.125 72 C-185.7228125 70.700625 -185.7228125 70.700625 -185.3125 69.375 C-184.15388013 66.08208036 -182.74290161 63.08872125 -181.125 60 C-180.465 60 -179.805 60 -179.125 60 C-178.83625 59.38125 -178.5475 58.7625 -178.25 58.125 C-177.125 56 -177.125 56 -175.125 54 C-169.54896249 52.75642329 -164.35462539 52.44896322 -159.125 55 C-155.62183891 57.37714503 -154.88648235 61.02542312 -154.125 65 C-153.71122703 70.14436454 -153.66329659 75.30082951 -153.55859375 80.45898438 C-153.52894531 81.49732422 -153.49929688 82.53566406 -153.46875 83.60546875 C-153.45005859 84.54543701 -153.43136719 85.48540527 -153.41210938 86.45385742 C-153.11662167 89.07430066 -152.45296282 90.74332466 -151.125 93 C-150.795 92.34 -150.465 91.68 -150.125 91 C-149.465 91 -148.805 91 -148.125 91 C-147.795 90.01 -147.465 89.02 -147.125 88 C-146.465 88 -145.805 88 -145.125 88 C-145.0425 87.4225 -144.96 86.845 -144.875 86.25 C-143.89503812 83.31011435 -142.3806135 82.13368844 -140.125 80 C-139.1580393 78.86143783 -138.20038456 77.71493481 -137.25 76.5625 C-134.46520052 73.27137334 -131.48114717 70.69950968 -128.125 68 C-127.01125 66.8553125 -127.01125 66.8553125 -125.875 65.6875 C-124.125 64 -124.125 64 -122.125 64 C-121.795 63.01 -121.465 62.02 -121.125 61 C-119.15178947 59.6273318 -117.14956848 58.29572383 -115.125 57 C-113.55494286 55.54624339 -112.16241661 54.04251887 -110.75 52.4375 C-108.72516198 50.64629714 -106.62352042 49.99940817 -104.125 49 C-103.609375 48.484375 -103.09375 47.96875 -102.5625 47.4375 C-100.83053268 45.70553268 -99.50371446 45.41012318 -97.125 45 C-97.125 44.34 -97.125 43.68 -97.125 43 C-95.145 42.34 -93.165 41.68 -91.125 41 C-91.125 40.34 -91.125 39.68 -91.125 39 C-88.65 38.505 -88.65 38.505 -86.125 38 C-86.125 37.34 -86.125 36.68 -86.125 36 C-83.47761084 34.5393715 -82.23051666 34 -79.125 34 C-79.125 33.34 -79.125 32.68 -79.125 32 C-77.145 31.34 -75.165 30.68 -73.125 30 C-73.125 29.34 -73.125 28.68 -73.125 28 C-70.21899739 26.74335022 -68.32895416 26 -65.125 26 C-65.125 25.34 -65.125 24.68 -65.125 24 C-62.21899739 22.74335022 -60.32895416 22 -57.125 22 C-57.125 21.34 -57.125 20.68 -57.125 20 C-55.475 19.67 -53.825 19.34 -52.125 19 C-52.125 18.34 -52.125 17.68 -52.125 17 C-49.21899739 15.74335022 -47.32895416 15 -44.125 15 C-44.125 14.34 -44.125 13.68 -44.125 13 C-41.485 12.34 -38.845 11.68 -36.125 11 C-36.125 10.34 -36.125 9.68 -36.125 9 C-33.155 8.34 -30.185 7.68 -27.125 7 C-27.125 6.34 -27.125 5.68 -27.125 5 C-26.28195312 4.65066406 -25.43890625 4.30132812 -24.5703125 3.94140625 C-23.47460938 3.48636719 -22.37890625 3.03132812 -21.25 2.5625 C-20.15945313 2.11003906 -19.06890625 1.65757812 -17.9453125 1.19140625 C-11.87881355 -1.37131145 -6.45966176 -2.06709176 0 0 Z " fill="#000000" transform="translate(419.125,136)"/>
<path d="M0 0 C2.97 0 5.94 0 9 0 C9 0.66 9 1.32 9 2 C8.34 2 7.68 2 7 2 C6.896875 2.598125 6.79375 3.19625 6.6875 3.8125 C5.89505679 6.33391022 4.88056492 7.19465768 3 9 C2.649375 9.70125 2.29875 10.4025 1.9375 11.125 C1 13 1 13 -1 14 C-2.56397966 16.44796816 -3.97528526 18.9550641 -5.375 21.5 C-7.2636618 24.40563354 -9.52318743 26.58669544 -12 29 C-12.66 29.99 -13.32 30.98 -14 32 C-14.66 32 -15.32 32 -16 32 C-16.144375 32.598125 -16.28875 33.19625 -16.4375 33.8125 C-16.8872439 35.56150404 -17.42892341 37.28677023 -18 39 C-18.66 39.33 -19.32 39.66 -20 40 C-21.13350534 42.01669827 -21.13350534 42.01669827 -22 44 C-22.66 44 -23.32 44 -24 44 C-24.144375 44.598125 -24.28875 45.19625 -24.4375 45.8125 C-24.8872439 47.56150404 -25.42892341 49.28677023 -26 51 C-26.66 51 -27.32 51 -28 51 C-28.33 52.65 -28.66 54.3 -29 56 C-28.113125 56.144375 -27.22625 56.28875 -26.3125 56.4375 C-23 57 -23 57 -20.4375 57.6875 C-17.39649302 58.07737269 -15.7770572 57.21051211 -13 56 C-11.68 56 -10.36 56 -9 56 C-9 55.34 -9 54.68 -9 54 C-8.05898438 53.80664062 -7.11796875 53.61328125 -6.1484375 53.4140625 C-4.90320313 53.15367187 -3.65796875 52.89328125 -2.375 52.625 C-1.14523437 52.36976563 0.08453125 52.11453125 1.3515625 51.8515625 C4.9294912 51.08007755 4.9294912 51.08007755 8.03515625 49.96484375 C11.29483411 48.90405267 14.41841407 48.39909569 17.8125 47.9375 C21.72681211 47.71189223 21.72681211 47.71189223 25 46 C27.62744203 45.59002328 30.23468769 45.23981085 32.875 44.9375 C33.64062256 44.84807129 34.40624512 44.75864258 35.19506836 44.66650391 C41.14559971 44.01026423 47.01296337 43.76724264 53 44 C53 43.34 53 42.68 53 42 C66.35994639 40.74164834 79.57331559 39.64458777 93 40 C92.21775257 44.3972938 90.82845741 47.94559445 89 52 C88.34 52 87.68 52 87 52 C86.34 55.63 85.68 59.26 85 63 C84.34 63 83.68 63 83 63 C83 69.27 83 75.54 83 82 C84.32 82.66 85.64 83.32 87 84 C87.33 84.33 87.66 84.66 88 85 C90.49804574 85.10621956 92.96219993 85.13682154 95.4609375 85.12109375 C96.69691177 85.11679604 96.69691177 85.11679604 97.95785522 85.1124115 C110.69175135 85.02330021 123.42206533 84.59665921 136.14941406 84.20043945 C139.92528154 84.08306087 143.70132444 83.97290183 147.47745705 83.86443424 C150.40278556 83.77939817 153.32796726 83.68997043 156.25312424 83.59924126 C157.64779459 83.55664889 159.04251294 83.51559948 160.43727493 83.4761219 C162.36538352 83.42103905 164.29329735 83.35925901 166.22119141 83.29711914 C167.31638092 83.26380997 168.41157043 83.23050079 169.53994751 83.19618225 C171.94411593 83.27210329 171.94411593 83.27210329 173 82 C175.88877489 81.76697561 178.75834212 81.59513495 181.65234375 81.46484375 C182.98453697 81.40037804 182.98453697 81.40037804 184.34364319 81.33460999 C186.23932134 81.24410798 188.13511527 81.15600516 190.03100586 81.07006836 C192.86673505 80.94072767 195.70188698 80.80206818 198.53710938 80.66210938 C210.03363475 80.11397127 221.49112031 79.88003253 233 80 C233 79.34 233 78.68 233 78 C241.58 77.34 250.16 76.68 259 76 C258.67 76.99 258.34 77.98 258 79 C257.34 79 256.68 79 256 79 C255.92072266 79.81984375 255.92072266 79.81984375 255.83984375 80.65625 C254.6196555 84.06142651 252.14876387 86.08790637 249.5625 88.5 C246.42355089 91.45004948 243.81714941 94.03998571 242 98 C240.54141071 99.23169763 239.07949707 100.46040377 237.58203125 101.64453125 C235.03872179 103.82361368 233.10417893 106.3974629 231 109 C228.8125 111.375 228.8125 111.375 227 113 C226.34 113 225.68 113 225 113 C224.896875 113.639375 224.79375 114.27875 224.6875 114.9375 C224.460625 115.618125 224.23375 116.29875 224 117 C222.515 117.495 222.515 117.495 221 118 C219.79117904 120.00016466 219.79117904 120.00016466 219 122 C218.34 122 217.68 122 217 122 C216.90251465 122.58426758 216.8050293 123.16853516 216.70458984 123.77050781 C215.8551412 126.45836819 214.70748482 127.67985656 212.7265625 129.671875 C212.0665625 130.33574219 211.4065625 130.99960937 210.7265625 131.68359375 C210.03304687 132.36550781 209.33953125 133.04742187 208.625 133.75 C207.93921875 134.44738281 207.2534375 135.14476562 206.546875 135.86328125 C205.55300781 136.85134766 205.55300781 136.85134766 204.5390625 137.859375 C203.62954834 138.76381348 203.62954834 138.76381348 202.70166016 139.68652344 C201 141 201 141 198 141 C197.34 142.32 196.68 143.64 196 145 C195.34 145 194.68 145 194 145 C194 149.62 194 154.24 194 159 C194.66 159 195.32 159 196 159 C197.00739334 160.6622083 198.00577769 162.32988031 199 164 C200.55756624 165.72673755 202.16810451 167.40652853 203.81640625 169.046875 C204.74517578 169.97371094 205.67394531 170.90054688 206.63085938 171.85546875 C207.11192139 172.33032715 207.5929834 172.80518555 208.08862305 173.29443359 C209.56688409 174.75432963 211.03687747 176.22217939 212.50585938 177.69140625 C216.85028857 182.37745393 216.85028857 182.37745393 222 186 C222.64642456 187.10770752 222.64642456 187.10770752 223.3059082 188.23779297 C225.23950628 191.39051362 227.44841653 193.62497776 230.10546875 196.1953125 C231.09841479 197.16785901 232.09125014 198.14051854 233.08398438 199.11328125 C234.64204628 200.62767301 236.20251028 202.13949701 237.76538086 203.64892578 C239.28093577 205.11635655 240.78729109 206.59275906 242.29296875 208.0703125 C243.1955542 208.94445801 244.09813965 209.81860352 245.02807617 210.71923828 C247 213 247 213 247 216 C247.99 216.33 248.98 216.66 250 217 C251.69088222 218.97956942 253.35830472 220.97945196 255 223 C255.66 223.33 256.32 223.66 257 224 C258.01866229 225.65532623 259.01810813 227.32260138 260 229 C260.66 229.66 261.32 230.32 262 231 C262 231.99 262 232.98 262 234 C263.32 234.66 264.64 235.32 266 236 C266 236.99 266 237.98 266 239 C266.99 239.33 267.98 239.66 269 240 C271.71104376 242.25920313 273.22173707 244.98468459 275 248 C275.66 248.66 276.32 249.32 277 250 C277 250.99 277 251.98 277 253 C277.8971875 253.37125 277.8971875 253.37125 278.8125 253.75 C281.36513531 255.20864875 282.56732558 256.43626682 284 259 C283.57421875 261.1328125 283.57421875 261.1328125 283 263 C263.65957447 265.38297872 263.65957447 265.38297872 254 265 C254 265.66 254 266.32 254 267 C244.595 267.495 244.595 267.495 235 268 C235 268.66 235 269.32 235 270 C234.07316406 270.12117188 233.14632812 270.24234375 232.19140625 270.3671875 C230.99386719 270.53476562 229.79632812 270.70234375 228.5625 270.875 C227.36753906 271.03742188 226.17257812 271.19984375 224.94140625 271.3671875 C223.97074219 271.57601563 223.00007812 271.78484375 222 272 C221.67 272.66 221.34 273.32 221 274 C221.66 274 222.32 274 223 274 C223 274.66 223 275.32 223 276 C223.97582031 276.12117188 224.95164062 276.24234375 225.95703125 276.3671875 C227.22933594 276.53476562 228.50164063 276.70234375 229.8125 276.875 C231.70935547 277.11863281 231.70935547 277.11863281 233.64453125 277.3671875 C237 278 237 278 240 280 C240.54501065 282.75711269 240.92549765 285.34152546 241.1875 288.125 C241.26935547 288.87910156 241.35121094 289.63320313 241.43554688 290.41015625 C241.6358897 292.27216607 241.81954036 294.13595811 242 296 C242.66 296 243.32 296 244 296 C244.18175781 296.83402344 244.36351562 297.66804688 244.55078125 298.52734375 C245.72223705 303.77186124 246.88653615 308.93157316 248.6875 314 C249.78831639 317.11324636 250.32344645 319.65771999 250 323 C250.66 323 251.32 323 252 323 C253.13764351 327.26616316 254 330.56486311 254 335 C254.66 335 255.32 335 256 335 C256.33820166 336.5823006 256.67035939 338.16589375 257 339.75 C257.185625 340.63171875 257.37125 341.5134375 257.5625 342.421875 C258 345 258 345 258 349 C258.66 349 259.32 349 260 349 C260.33 351.97 260.66 354.94 261 358 C261.66 358 262.32 358 263 358 C263.33820166 359.5823006 263.67035939 361.16589375 264 362.75 C264.185625 363.63171875 264.37125 364.5134375 264.5625 365.421875 C265 368 265 368 265 372 C265.66 372 266.32 372 267 372 C267.18175781 372.83402344 267.36351562 373.66804688 267.55078125 374.52734375 C268.8950089 380.54534754 270.31860616 386.40441674 272.44921875 392.1953125 C273 394 273 394 273 397 C270.69 396.67 268.38 396.34 266 396 C266 395.34 266 394.68 266 394 C264.741875 393.855625 263.48375 393.71125 262.1875 393.5625 C259.57332877 393.26251314 257.52560108 392.84186703 255 392 C255 391.34 255 390.68 255 390 C254.236875 389.855625 253.47375 389.71125 252.6875 389.5625 C250 389 250 389 247 388 C247 387.34 247 386.68 247 386 C244.69 385.67 242.38 385.34 240 385 C240 384.34 240 383.68 240 383 C238.9275 382.855625 237.855 382.71125 236.75 382.5625 C234.08337051 382.16250558 231.58600271 381.72408076 229 381 C229 380.34 229 379.68 229 379 C228.195625 378.896875 227.39125 378.79375 226.5625 378.6875 C223.77000057 378.1485966 221.40827543 377.49738195 218.75 376.5625 C214.57212274 375.10130694 210.42907066 374.24421349 206.06640625 373.52734375 C204 373 204 373 202 371 C200.76763184 363.10586808 200.85620048 354.9728843 201 347 C200.34 347 199.68 347 199 347 C198.34 338.09 197.68 329.18 197 320 C196.34 320 195.68 320 195 320 C194.34 316.37 193.68 312.74 193 309 C192.34 309 191.68 309 191 309 C190.34 305.7 189.68 302.4 189 299 C186.36 298.67 183.72 298.34 181 298 C180.34 300.31 179.68 302.62 179 305 C178.34 305 177.68 305 177 305 C177 312.26 177 319.52 177 327 C177.66 327 178.32 327 179 327 C179.33923576 329.35344806 179.67150534 331.7075484 180 334.0625 C180.09539063 334.71927734 180.19078125 335.37605469 180.2890625 336.05273438 C180.88887674 340.40138763 181.09127093 344.61329071 181 349 C181.66 349 182.32 349 183 349 C184.22914592 358.36126309 185.36799953 367.53423442 185 377 C185.66 377 186.32 377 187 377 C187 384.59 187 392.18 187 400 C183.06881279 398.0344064 181.05869028 396.05869028 178 393 C177.01 392.67 176.02 392.34 175 392 C172.8125 390.0625 172.8125 390.0625 171 388 C171 387.34 171 386.68 171 386 C170.401875 385.896875 169.80375 385.79375 169.1875 385.6875 C167 385 167 385 165.62109375 383.6171875 C163.29222701 381.29393249 160.56404675 379.84259891 157.7421875 378.18359375 C156 377 156 377 155 375 C153.27574383 373.97821857 151.54917407 372.95869907 149.7890625 372 C148.14478395 371.08092727 146.56733776 370.04489184 145 369 C145 368.34 145 367.68 145 367 C144.29875 366.9175 143.5975 366.835 142.875 366.75 C139.3096548 365.81990995 136.90984428 364.23313631 134 362 C134 361.34 134 360.68 134 360 C131.36 359.34 128.72 358.68 126 358 C126 357.34 126 356.68 126 356 C125.42378906 355.87625 124.84757813 355.7525 124.25390625 355.625 C121.9464543 354.98515197 120.05494542 354.10972091 117.9375 353 C115.60116984 351.78026525 113.5169453 350.83898177 111 350 C111 349.34 111 348.68 111 348 C110.030625 347.731875 109.06125 347.46375 108.0625 347.1875 C103.66073104 345.93371745 99.33223494 344.4735493 95 343 C95 342.34 95 341.68 95 341 C93.7625 340.855625 92.525 340.71125 91.25 340.5625 C88.43495501 340.21311498 85.7298503 339.79620634 83 339 C83 338.34 83 337.68 83 337 C81.80375 336.855625 80.6075 336.71125 79.375 336.5625 C75.8994842 336.12960657 72.45049966 335.60383744 69 335 C69 334.34 69 333.68 69 333 C68.21496094 332.93941406 67.42992187 332.87882812 66.62109375 332.81640625 C61.04638852 332.37179786 55.52359384 331.87875357 50 331 C50 329.68 50 328.36 50 327 C50.66 327 51.32 327 52 327 C52.144375 326.236875 52.28875 325.47375 52.4375 324.6875 C53 322 53 322 54 319 C54.66 319 55.32 319 56 319 C56.144375 318.236875 56.28875 317.47375 56.4375 316.6875 C57 314 57 314 58 311 C58.66 311 59.32 311 60 311 C60.66 307.37 61.32 303.74 62 300 C62.66 300 63.32 300 64 300 C63.67039784 294.98464948 63.67039784 294.98464948 61 291 C56.01528338 290.52974371 52.99141294 290.92091002 49 294 C48.34 294.99 47.68 295.98 47 297 C45.4840625 297.4640625 45.4840625 297.4640625 43.9375 297.9375 C42.968125 298.288125 41.99875 298.63875 41 299 C40.29805007 300.80252869 40.29805007 300.80252869 40 303 C38.68568305 305.01254782 37.35278115 307.01310269 36 309 C35.67 309.99 35.34 310.98 35 312 C34.34 312 33.68 312 33 312 C32.855625 313.2375 32.71125 314.475 32.5625 315.75 C32.21311498 318.56504499 31.79620634 321.2701497 31 324 C30.34 324 29.68 324 29 324 C28.95101563 324.65226562 28.90203125 325.30453125 28.8515625 325.9765625 C28.42238181 330.99353681 27.62379887 335.22412097 26 340 C25.24480787 343.98659245 24.61010615 347.98887662 24 352 C23.34 352 22.68 352 22 352 C21.97494385 352.61520508 21.9498877 353.23041016 21.92407227 353.86425781 C21.80781513 356.65970156 21.68522358 359.45483298 21.5625 362.25 C21.50352539 363.70212891 21.50352539 363.70212891 21.44335938 365.18359375 C21.40146484 366.11816406 21.35957031 367.05273438 21.31640625 368.015625 C21.27974854 368.87446289 21.24309082 369.73330078 21.20532227 370.61816406 C21.01296486 372.84960143 20.61153756 374.84982524 20 377 C19.34 377 18.68 377 18 377 C17.67 379.97 17.34 382.94 17 386 C16.01 386.33 15.02 386.66 14 387 C12.1234558 381.70814535 10.60811014 376.48569394 9.46875 370.98828125 C9.02431193 368.86449808 9.02431193 368.86449808 7.9375 366.4375 C6.61240195 362.99224508 6.37311072 359.66892209 6 356 C5.34 356 4.68 356 4 356 C3.67 353.36 3.34 350.72 3 348 C2.34 348 1.68 348 1 348 C-0.25664978 345.09399739 -1 343.20395416 -1 340 C-1.66 340 -2.32 340 -3 340 C-3.185625 339.13375 -3.37125 338.2675 -3.5625 337.375 C-5.2464826 333.42130173 -7.18446039 331.84363416 -10.5390625 329.296875 C-11.02117187 328.86890625 -11.50328125 328.4409375 -12 328 C-12 327.34 -12 326.68 -12 326 C-15.63 325.34 -19.26 324.68 -23 324 C-23 323.34 -23 322.68 -23 322 C-33.23 321.34 -43.46 320.68 -54 320 C-54 319.34 -54 318.68 -54 318 C-55.16144531 318.02320313 -56.32289063 318.04640625 -57.51953125 318.0703125 C-71.66280267 318.25006442 -85.74962279 317.71000095 -99.875 317.0625 C-101.35016586 316.99715057 -101.35016586 316.99715057 -102.85513306 316.93048096 C-105.67195033 316.80435262 -108.48832987 316.6711247 -111.3046875 316.53515625 C-112.16723648 316.49655991 -113.02978546 316.45796356 -113.91847229 316.41819763 C-119.88458997 316.11541003 -119.88458997 316.11541003 -121 315 C-123.14386657 314.84141158 -125.29266838 314.74870702 -127.44140625 314.68359375 C-128.74658203 314.64169922 -130.05175781 314.59980469 -131.39648438 314.55664062 C-132.7851533 314.51682392 -134.17382522 314.47711175 -135.5625 314.4375 C-136.95509183 314.39432011 -138.34767028 314.350706 -139.74023438 314.30664062 C-143.16004801 314.20014124 -146.57993763 314.09813077 -150 314 C-150 314.66 -150 315.32 -150 316 C-184.69566704 318.38776806 -184.69566704 318.38776806 -199 318 C-199 318.66 -199 319.32 -199 320 C-203.37392531 320.28898189 -207.74810646 320.57362542 -212.12255859 320.85449219 C-213.6063574 320.95034565 -215.09008411 321.04732291 -216.57373047 321.14550781 C-224.72445344 321.68412605 -232.8261207 322.1289764 -241 322 C-241 322.66 -241 323.32 -241 324 C-241.60473145 324.08040527 -242.20946289 324.16081055 -242.83251953 324.24365234 C-245.59752494 324.61475493 -248.36123158 324.99479905 -251.125 325.375 C-252.55199219 325.56449219 -252.55199219 325.56449219 -254.0078125 325.7578125 C-258.90620052 326.43814417 -263.32205885 327.35132733 -268 329 C-271.25281057 329.56845233 -274.50843549 330.00112473 -277.78125 330.4375 C-281.02725049 331.00476222 -283.87891015 331.94963322 -287 333 C-291.41468483 334.12668353 -295.8608656 335.12279334 -300.30078125 336.14453125 C-304.96110329 337.23127301 -309.47194879 338.4365025 -314 340 C-315.43187156 340.33735194 -316.86936823 340.65213496 -318.3125 340.9375 C-322.32775647 341.78531598 -326.10822231 342.99792515 -329.95703125 344.4140625 C-332 345 -332 345 -336 345 C-336 345.66 -336 346.32 -336 347 C-336.90878906 347.23783203 -336.90878906 347.23783203 -337.8359375 347.48046875 C-343.35359964 349.01692544 -348.30486549 350.95492111 -353.3671875 353.62890625 C-355.20077757 354.58378773 -357.06354154 355.48381266 -358.9453125 356.33984375 C-365.59141632 359.40793004 -370.61074398 362.9185291 -375.84375 368.046875 C-377.85958493 369.87281244 -379.47474843 371.0250611 -382 372 C-384.30797001 371.66059264 -385.91510461 371.04244769 -388 370 C-388 369.34 -388 368.68 -388 368 C-388.5775 367.87625 -389.155 367.7525 -389.75 367.625 C-392.73976372 366.79451008 -395.27006363 365.3877787 -398 363.9375 C-399.98934744 363.00499339 -401.85678743 362.45925984 -404 362 C-404 361.34 -404 360.68 -404 360 C-405.1446875 359.87753906 -406.289375 359.75507812 -407.46875 359.62890625 C-411.91495746 359.07313032 -416.17056269 358.07197292 -420.5 356.9375 C-421.22703125 356.75123047 -421.9540625 356.56496094 -422.703125 356.37304688 C-424.46987724 355.91973545 -426.23510775 355.4604998 -428 355 C-428 354.34 -428 353.68 -428 353 C-432.29 352.67 -436.58 352.34 -441 352 C-441 351.01 -441 350.02 -441 349 C-440.16855469 348.59007812 -439.33710938 348.18015625 -438.48046875 347.7578125 C-437.39378906 347.21898437 -436.30710937 346.68015625 -435.1875 346.125 C-434.10855469 345.59132813 -433.02960938 345.05765625 -431.91796875 344.5078125 C-428.92161735 343.02778861 -428.92161735 343.02778861 -426 341 C-425.01 341 -424.02 341 -423 341 C-423 340.34 -423 339.68 -423 339 C-416.93184478 337.77100654 -411.20104812 336.72439786 -405 337 C-405 336.34 -405 335.68 -405 335 C-399.72 334.34 -394.44 333.68 -389 333 C-389 332.34 -389 331.68 -389 331 C-388.03320312 330.64808594 -388.03320312 330.64808594 -387.046875 330.2890625 C-384.7922092 329.18838927 -384.7922092 329.18838927 -384.390625 326.8359375 C-384.34421875 326.02382813 -384.2978125 325.21171875 -384.25 324.375 C-384.16492188 323.14910156 -384.16492188 323.14910156 -384.078125 321.8984375 C-384.03945313 320.95871094 -384.03945313 320.95871094 -384 320 C-384.66 320 -385.32 320 -386 320 C-386 319.34 -386 318.68 -386 318 C-386.99 317.67 -387.98 317.34 -389 317 C-390.03435556 315.35443434 -391.02763513 313.6829392 -392 312 C-392.88032584 310.94519517 -393.77680582 309.90369962 -394.6875 308.875 C-397 306 -397 306 -397 303 C-397.66 303 -398.32 303 -399 303 C-400.00508801 301.21118264 -401.00392736 299.41885304 -402 297.625 C-402.8353125 296.12839844 -402.8353125 296.12839844 -403.6875 294.6015625 C-405 292 -405 292 -405 290 C-405.66 290 -406.32 290 -407 290 C-411.40774487 280.58997722 -411.40774487 280.58997722 -412 276 C-412.66 276 -413.32 276 -414 276 C-414.66 273.03 -415.32 270.06 -416 267 C-416.66 267 -417.32 267 -418 267 C-419.19287411 263.12315913 -420 260.08378077 -420 256 C-420.66 256 -421.32 256 -422 256 C-423.19287411 252.12315913 -424 249.08378077 -424 245 C-424.66 245 -425.32 245 -426 245 C-427.19287411 241.12315913 -428 238.08378077 -428 234 C-428.66 234 -429.32 234 -430 234 C-430.66 230.37 -431.32 226.74 -432 223 C-429.69 223.33 -427.38 223.66 -425 224 C-425 224.66 -425 225.32 -425 226 C-423.515 226.1546875 -423.515 226.1546875 -422 226.3125 C-419.2039717 226.70472842 -416.8036159 227.38252862 -414.1875 228.4375 C-410.30674203 229.98679485 -406.46350006 230.78735756 -402.359375 231.52734375 C-400 232 -400 232 -396.6875 233.125 C-389.67468747 234.78905721 -381.56635653 235.35953125 -375 232 C-373.65589738 229.98264795 -373.65589738 229.98264795 -373 228 C-372.34 228 -371.68 228 -371 228 C-371 227.01 -371 226.02 -371 225 C-371.66 225 -372.32 225 -373 225 C-373.02488901 219.7530145 -373.04294884 214.50606408 -373.05493164 209.2590332 C-373.05993201 207.47745158 -373.06673446 205.69587401 -373.07543945 203.91430664 C-373.08769464 201.3399963 -373.09327142 198.76574064 -373.09765625 196.19140625 C-373.10281754 195.40665421 -373.10797882 194.62190216 -373.11329651 193.81336975 C-373.11382743 188.47043137 -372.66708655 183.30206849 -372 178 C-371.34 178 -370.68 178 -370 178 C-370.020625 176.824375 -370.04125 175.64875 -370.0625 174.4375 C-370.06947261 170.52586533 -369.64250343 166.85502056 -369 163 C-368.34 163 -367.68 163 -367 163 C-366.93941406 162.25234375 -366.87882812 161.5046875 -366.81640625 160.734375 C-366.69072266 159.25710938 -366.69072266 159.25710938 -366.5625 157.75 C-366.44068359 156.28820312 -366.44068359 156.28820312 -366.31640625 154.796875 C-366.04925416 152.43538247 -365.64628032 150.28098935 -365 148 C-364.34 148 -363.68 148 -363 148 C-362.896875 146.72125 -362.79375 145.4425 -362.6875 144.125 C-362.20091033 139.69703401 -361.117444 135.67578046 -359.765625 131.44140625 C-358.68489766 127.99520938 -357.84514268 124.51059267 -357 121 C-356.34 121 -355.68 121 -355 121 C-354.896875 119.88625 -354.79375 118.7725 -354.6875 117.625 C-353.2600406 106.43997564 -348.75387966 95.14119627 -344.25 84.875 C-343.24165815 82.55581375 -342.49384624 80.46923118 -342 78 C-341.34 78 -340.68 78 -340 78 C-340 77.01 -340 76.02 -340 75 C-339.34 75 -338.68 75 -338 75 C-337.66148822 77.68693722 -337.329064 80.37440289 -337 83.0625 C-336.90460938 83.81466797 -336.80921875 84.56683594 -336.7109375 85.34179688 C-336.15428098 89.93421317 -335.90170972 94.3742135 -336 99 C-335.34 99 -334.68 99 -334 99 C-333.66179834 100.5823006 -333.32964061 102.16589375 -333 103.75 C-332.7215625 105.07257813 -332.7215625 105.07257813 -332.4375 106.421875 C-332 109 -332 109 -332 113 C-331.34 113 -330.68 113 -330 113 C-329.505 116.465 -329.505 116.465 -329 120 C-325.04 120 -321.08 120 -317 120 C-316.505 118.02 -316.505 118.02 -316 116 C-315.0206121 114.97980427 -314.02104551 113.97850195 -313 113 C-312.67 112.01 -312.34 111.02 -312 110 C-311.34 109.67 -310.68 109.34 -310 109 C-309.67 108.01 -309.34 107.02 -309 106 C-308.67 105.01 -308.34 104.02 -308 103 C-307.34 102.67 -306.68 102.34 -306 102 C-304.86649466 99.98330173 -304.86649466 99.98330173 -304 98 C-303.34 98 -302.68 98 -302 98 C-301.7834375 97.1028125 -301.7834375 97.1028125 -301.5625 96.1875 C-300.28729282 91.22836096 -300.28729282 91.22836096 -297.5625 89.0625 C-295.0013573 87.00109246 -294.3465633 85.87266838 -293 83 C-291 80.75 -291 80.75 -289 79 C-288.34 79 -287.68 79 -287 79 C-286.90251465 78.41500732 -286.8050293 77.83001465 -286.70458984 77.22729492 C-285.8552783 74.54251696 -284.71548627 73.34239038 -282.7265625 71.36328125 C-282.0665625 70.70392578 -281.4065625 70.04457031 -280.7265625 69.36523438 C-280.03304687 68.68783203 -279.33953125 68.01042969 -278.625 67.3125 C-277.93921875 66.62349609 -277.2534375 65.93449219 -276.546875 65.22460938 C-271.40080095 60.13360032 -271.40080095 60.13360032 -268 59 C-267.34 58.01 -266.68 57.02 -266 56 C-265.34 56 -264.68 56 -264 56 C-263.6596875 55.1028125 -263.6596875 55.1028125 -263.3125 54.1875 C-261.65685748 51.4280958 -259.75894293 50.58639218 -257 49 C-256.34 48.01 -255.68 47.02 -255 46 C-253.36021682 44.95650161 -251.68535024 43.96817992 -250 43 C-247.71861644 41.4478444 -245.44762081 39.88205124 -243.18359375 38.3046875 C-241 37 -241 37 -238.78515625 36.5078125 C-238.19605469 36.34023437 -237.60695313 36.17265625 -237 36 C-236.67 35.01 -236.34 34.02 -236 33 C-235.01 33 -234.02 33 -233 33 C-232.67 32.01 -232.34 31.02 -232 30 C-229.41796875 28.5 -229.41796875 28.5 -226.1875 27 C-221.80844805 24.96452667 -221.80844805 24.96452667 -217.80078125 22.3125 C-216 21 -216 21 -213 21 C-213 20.34 -213 19.68 -213 19 C-212.01 18.67 -211.02 18.34 -210 18 C-209.67 17.34 -209.34 16.68 -209 16 C-207.109375 15 -207.109375 15 -204.75 14 C-203.94046875 13.65195313 -203.1309375 13.30390625 -202.296875 12.9453125 C-200.54384002 12.22382531 -198.77499846 11.54062442 -197 10.875 C-194.82128186 10.17605071 -194.82128186 10.17605071 -194 8 C-192.0390625 6.9296875 -192.0390625 6.9296875 -189.625 5.875 C-188.83351563 5.52179688 -188.04203125 5.16859375 -187.2265625 4.8046875 C-185 4 -185 4 -182 4 C-182 5.32 -182 6.64 -182 8 C-182.66 8 -183.32 8 -184 8 C-184.12375 8.85335937 -184.2475 9.70671875 -184.375 10.5859375 C-185.00921213 14.05032125 -185.93168624 17.27080901 -187 20.625 C-188.63390443 25.77512129 -188.63390443 25.77512129 -190 31 C-190.66 31 -191.32 31 -192 31 C-192.33 33.97 -192.66 36.94 -193 40 C-193.66 40 -194.32 40 -195 40 C-195.66 45.94 -196.32 51.88 -197 58 C-197.66 58 -198.32 58 -199 58 C-198.67 60.31 -198.34 62.62 -198 65 C-194.37 64.34 -190.74 63.68 -187 63 C-186.67 62.01 -186.34 61.02 -186 60 C-184.02 59.67 -182.04 59.34 -180 59 C-180 58.34 -180 57.68 -180 57 C-177.09399739 55.74335022 -175.20395416 55 -172 55 C-172 54.34 -172 53.68 -172 53 C-166.95859836 50.18467181 -162.77378925 48.4811491 -157 48 C-157 47.34 -157 46.68 -157 46 C-154.09399739 44.74335022 -152.20395416 44 -149 44 C-149 43.34 -149 42.68 -149 42 C-145.12315913 40.80712589 -142.08378077 40 -138 40 C-138 39.34 -138 38.68 -138 38 C-134.62902617 36.50178941 -132.79557881 36 -129 36 C-129 35.34 -129 34.68 -129 34 C-125.535 33.505 -125.535 33.505 -122 33 C-122 32.34 -122 31.68 -122 31 C-121.14728516 30.72736328 -121.14728516 30.72736328 -120.27734375 30.44921875 C-116.08858314 29.08559885 -112.05434846 27.60457848 -108.01953125 25.828125 C-95.41444032 20.65930628 -95.41444032 20.65930628 -89 21 C-89 20.34 -89 19.68 -89 19 C-87.7625 18.67 -86.525 18.34 -85.25 18 C-84.55390625 17.814375 -83.8578125 17.62875 -83.140625 17.4375 C-81 17 -81 17 -77 17 C-77 16.34 -77 15.68 -77 15 C-76.11248047 14.81824219 -76.11248047 14.81824219 -75.20703125 14.6328125 C-70.28378903 13.61470814 -70.28378903 13.61470814 -65.5625 11.9375 C-61.50548877 10.4532276 -57.28672395 10.31630196 -53 10 C-53 9.34 -53 8.68 -53 8 C-50.81347261 7.66034526 -48.62571975 7.32857523 -46.4375 7 C-45.21933594 6.814375 -44.00117187 6.62875 -42.74609375 6.4375 C-39.12372152 6.01444923 -35.64287954 5.92498575 -32 6 C-32 5.34 -32 4.68 -32 4 C-21.28712612 2.73300752 -10.8029818 1.65089107 0 2 C0 1.34 0 0.68 0 0 Z " fill="#FDFDFD" transform="translate(583,159)"/>
<path d="M0 0 C2.375 2.75 2.375 2.75 4 5 C4.66 5.33 5.32 5.66 6 6 C7.3749149 8.90259811 8 10.76138705 8 14 C8.66 14 9.32 14 10 14 C10.33 17.3 10.66 20.6 11 24 C11.66 24 12.32 24 13 24 C13.02465622 28.25414623 13.04283899 32.50825498 13.05493164 36.76245117 C13.05997101 38.21070073 13.06680253 39.65894517 13.07543945 41.10717773 C13.08752247 43.18474588 13.09323211 45.26224697 13.09765625 47.33984375 C13.10551147 49.21724243 13.10551147 49.21724243 13.11352539 51.13256836 C13 54 13 54 12 55 C11.60006314 57.68862664 11.24865457 60.36352217 10.9375 63.0625 C10.84662109 63.82111328 10.75574219 64.57972656 10.66210938 65.36132812 C10.4375626 67.2404301 10.21829022 69.12016095 10 71 C9.34 71 8.68 71 8 71 C8.33 72.65 8.66 74.3 9 76 C8.34 76 7.68 76 7 76 C7.03996094 77.00417969 7.07992188 78.00835938 7.12109375 79.04296875 C6.99569749 83.14059494 6.24407588 86.39774147 5.0625 90.3125 C4.70285156 91.52550781 4.34320312 92.73851562 3.97265625 93.98828125 C3 97 3 97 2 99 C1.34 99 0.68 99 0 99 C-0.33 99.99 -0.66 100.98 -1 102 C-6.12583611 102.10251672 -10.94997778 102.03590199 -16 101 C-16 100.34 -16 99.68 -16 99 C-21.94 99 -27.88 99 -34 99 C-34.69785218 103.87355474 -34.69785218 103.87355474 -35.375 108.75 C-36.09360588 111.33698115 -37.0543762 112.21651152 -39 114 C-39.33 114.99 -39.66 115.98 -40 117 C-42.0315526 119.418515 -44.07697999 120.81252312 -47 122 C-47.99 122 -48.98 122 -50 122 C-50 122.66 -50 123.32 -50 124 C-51.216875 124.37125 -52.43375 124.7425 -53.6875 125.125 C-59.99174421 127.22641474 -66.13838551 129.86857202 -72 133 C-72.33 133.66 -72.66 134.32 -73 135 C-75.328125 135.6328125 -75.328125 135.6328125 -78.25 136.125 C-79.20390625 136.29257812 -80.1578125 136.46015625 -81.140625 136.6328125 C-83.80099245 136.97444439 -86.32205635 137.06841462 -89 137 C-89 137.66 -89 138.32 -89 139 C-90.56116819 139.33951619 -92.12401338 139.67132544 -93.6875 140 C-94.55761719 140.185625 -95.42773438 140.37125 -96.32421875 140.5625 C-98.93712964 140.98972047 -101.35813038 141.07616201 -104 141 C-104 141.66 -104 142.32 -104 143 C-104.86882812 143.19335938 -105.73765625 143.38671875 -106.6328125 143.5859375 C-107.78523438 143.84632813 -108.93765625 144.10671875 -110.125 144.375 C-111.26195312 144.63023437 -112.39890625 144.88546875 -113.5703125 145.1484375 C-116.78573095 145.9467988 -119.86258665 146.94273468 -123 148 C-124.49416133 148.35859872 -125.99409407 148.69445387 -127.5 149 C-130.18428958 149.56653348 -132.58750562 150.20735492 -135.1875 151.125 C-138.26068919 152.0811033 -140.80062691 152.1523511 -144 152 C-144 152.66 -144 153.32 -144 154 C-144.94101562 154.19335938 -145.88203125 154.38671875 -146.8515625 154.5859375 C-148.09679687 154.84632813 -149.34203125 155.10671875 -150.625 155.375 C-151.85476563 155.63023437 -153.08453125 155.88546875 -154.3515625 156.1484375 C-157.93305565 156.92151854 -157.93305565 156.92151854 -161.05859375 158.0390625 C-164.19605456 159.0640497 -167.16898544 159.56053586 -170.4375 160 C-173.87555128 160.46337153 -177.05456027 161.01604714 -180.38671875 161.99609375 C-184.39070189 163.10855177 -188.25457035 163.62617458 -192.375 164.0625 C-197.06762587 164.17609991 -197.06762587 164.17609991 -201 166 C-202.91016816 166.28682556 -204.82915053 166.51540649 -206.75 166.71875 C-208.49796875 166.91017578 -208.49796875 166.91017578 -210.28125 167.10546875 C-212.76041667 167.36848958 -215.23958333 167.63151042 -217.71875 167.89453125 C-219.46671875 168.08595703 -219.46671875 168.08595703 -221.25 168.28125 C-222.32765625 168.39533203 -223.4053125 168.50941406 -224.515625 168.62695312 C-226.9370204 168.73893126 -226.9370204 168.73893126 -228 170 C-234.96265875 171.02354874 -241.97660718 171.13711613 -249 171 C-249 171.66 -249 172.32 -249 173 C-267.81 173 -286.62 173 -306 173 C-306 172.34 -306 171.68 -306 171 C-306.94359375 171.01160156 -307.8871875 171.02320313 -308.859375 171.03515625 C-325.02931096 171.14880038 -325.02931096 171.14880038 -333 170 C-333.33 169.67 -333.66 169.34 -334 169 C-335.84846443 168.70151 -337.70637897 168.46107178 -339.56640625 168.24609375 C-340.69111328 168.11396484 -341.81582031 167.98183594 -342.97460938 167.84570312 C-344.75061523 167.64364258 -344.75061523 167.64364258 -346.5625 167.4375 C-347.75037109 167.29892578 -348.93824219 167.16035156 -350.16210938 167.01757812 C-353.10764722 166.67452352 -356.05359533 166.33551453 -359 166 C-359 165.34 -359 164.68 -359 164 C-359.969375 164.04125 -360.93875 164.0825 -361.9375 164.125 C-369.17026377 164.11038836 -375.48370982 161.9387191 -382 159 C-383.32276056 158.62691369 -384.65232077 158.26953585 -386 158 C-386 157.34 -386 156.68 -386 156 C-389.63 155.34 -393.26 154.68 -397 154 C-397 153.34 -397 152.68 -397 152 C-397.78375 151.773125 -398.5675 151.54625 -399.375 151.3125 C-405.23235153 149.19173479 -410.81465735 146.4568951 -416 143 C-416 142.34 -416 141.68 -416 141 C-417.051875 140.62875 -417.051875 140.62875 -418.125 140.25 C-424.17566357 137.61927671 -427.97084777 134.06284465 -432.12890625 129.08984375 C-434.62016742 126.30732867 -437.40221018 123.98681612 -440.30078125 121.640625 C-442.15137608 119.85384379 -443.07281505 118.39091348 -444 116 C-444 115.01 -444 114.02 -444 113 C-444.66 113 -445.32 113 -446 113 C-447.25664978 110.09399739 -448 108.20395416 -448 105 C-448.66 105 -449.32 105 -450 105 C-451.33583899 100.15758367 -452.25328119 96.06562383 -452 91 C-452.66 91 -453.32 91 -454 91 C-454.90526546 84.83557328 -455.15206972 78.85103579 -455.125 72.625 C-455.12886719 71.74328125 -455.13273438 70.8615625 -455.13671875 69.953125 C-455.12460223 61.6896564 -454.82842856 53.81977309 -452 46 C-451.27406492 43.01230801 -450.62865678 40.00952714 -450 37 C-449.34 37 -448.68 37 -448 37 C-447.7834375 35.1128125 -447.7834375 35.1128125 -447.5625 33.1875 C-447.26251314 30.57332877 -446.84186703 28.52560108 -446 26 C-445.34 26 -444.68 26 -444 26 C-443.855625 24.7625 -443.71125 23.525 -443.5625 22.25 C-443.21311498 19.43495501 -442.79620634 16.7298503 -442 14 C-441.34 14 -440.68 14 -440 14 C-439.67 11.69 -439.34 9.38 -439 7 C-437.35 7 -435.7 7 -434 7 C-434 7.66 -434 8.32 -434 9 C-429.38 9.66 -424.76 10.32 -420 11 C-420 11.66 -420 12.32 -420 13 C-419.12988281 13.09087891 -419.12988281 13.09087891 -418.2421875 13.18359375 C-413.79907137 13.66016561 -409.40094577 14.21008666 -405 15 C-405 15.66 -405 16.32 -405 17 C-403.50146484 17.09087891 -403.50146484 17.09087891 -401.97265625 17.18359375 C-400.68230469 17.26738281 -399.39195312 17.35117187 -398.0625 17.4375 C-396.13083984 17.55931641 -396.13083984 17.55931641 -394.16015625 17.68359375 C-391 18 -391 18 -390 19 C-387.93221142 19.29964406 -385.8557051 19.53954611 -383.77734375 19.75390625 C-382.51728516 19.88603516 -381.25722656 20.01816406 -379.95898438 20.15429688 C-378.61849918 20.2904591 -377.27800426 20.42652556 -375.9375 20.5625 C-374.59305707 20.70207106 -373.24865537 20.84203986 -371.90429688 20.98242188 C-368.6032506 21.32554138 -365.30183269 21.66454667 -362 22 C-362 22.66 -362 23.32 -362 24 C-357.89597283 24.08832196 -353.79219544 24.14083048 -349.6875 24.1875 C-348.53958984 24.21263672 -347.39167969 24.23777344 -346.20898438 24.26367188 C-338.6215941 24.32815395 -332.20093582 23.34823213 -325 21 C-323.824375 20.690625 -322.64875 20.38125 -321.4375 20.0625 C-317.6855738 18.90281372 -314.13334921 17.45111433 -310.52734375 15.90234375 C-305.19458195 13.9983747 -299.99791634 13.86373163 -294.375 13.875 C-292.43753906 13.87113281 -292.43753906 13.87113281 -290.4609375 13.8671875 C-287.73773315 13.9716897 -285.57083894 14.17785354 -283 15 C-283 15.66 -283 16.32 -283 17 C-282.41992188 17.19335938 -281.83984375 17.38671875 -281.2421875 17.5859375 C-276.828125 19.05729167 -272.4140625 20.52864583 -268 22 C-268 22.66 -268 23.32 -268 24 C-265.36 24.66 -262.72 25.32 -260 26 C-260 26.66 -260 27.32 -260 28 C-249.5217847 28.8301636 -239.1325829 29.16268501 -228.625 29.125 C-227.90388031 29.12411377 -227.18276062 29.12322754 -226.43978882 29.12231445 C-217.11953989 29.10889715 -207.8521589 28.90885216 -198.5546875 28.22265625 C-192.70331778 27.85614188 -186.8613344 27.91639935 -181 28 C-181 27.34 -181 26.68 -181 26 C-180.03586182 25.91435791 -179.07172363 25.82871582 -178.07836914 25.74047852 C-174.51284864 25.42257258 -170.94788256 25.09878814 -167.38305664 24.77319336 C-165.83795499 24.63290691 -164.29270626 24.49423083 -162.74731445 24.35717773 C-160.53035806 24.16028869 -158.31398923 23.95767821 -156.09765625 23.75390625 C-155.05545677 23.66321617 -155.05545677 23.66321617 -153.99220276 23.57069397 C-150.70984414 23.51030039 -150.70984414 23.51030039 -148 22 C-146.52868827 21.71614087 -145.04686318 21.48618938 -143.5625 21.28125 C-142.66789062 21.15363281 -141.77328125 21.02601563 -140.8515625 20.89453125 C-138.95052083 20.63151042 -137.04947917 20.36848958 -135.1484375 20.10546875 C-134.25382812 19.97785156 -133.35921875 19.85023438 -132.4375 19.71875 C-131.19806641 19.54762695 -131.19806641 19.54762695 -129.93359375 19.37304688 C-128.00064401 19.18742796 -128.00064401 19.18742796 -127 18 C-124.98405418 17.76572222 -122.961526 17.58663876 -120.9375 17.4375 C-119.83277344 17.35371094 -118.72804688 17.26992188 -117.58984375 17.18359375 C-116.73519531 17.12300781 -115.88054687 17.06242188 -115 17 C-115 16.34 -115 15.68 -115 15 C-112.95928485 14.66089006 -110.91737379 14.32897296 -108.875 14 C-107.73804688 13.814375 -106.60109375 13.62875 -105.4296875 13.4375 C-102.23862398 13.03043951 -99.21182209 12.92190098 -96 13 C-96 12.34 -96 11.68 -96 11 C-90.23347507 9.83080302 -84.56209768 8.90438407 -78.6875 8.5 C-74.45490305 8.19494797 -71.00103048 7.45492017 -67 6 C-64.33625031 5.56092038 -61.68747822 5.27801499 -59 5 C-59 4.34 -59 3.68 -59 3 C-57.35 3 -55.7 3 -54 3 C-53.67 6.3 -53.34 9.6 -53 13 C-50.03 13 -47.06 13 -44 13 C-43.34 11.68 -42.68 10.36 -42 9 C-41.34 9 -40.68 9 -40 9 C-39.90976562 8.41347656 -39.81953125 7.82695313 -39.7265625 7.22265625 C-38.19636949 2.54158194 -33.27035509 -0.68981591 -29.125 -3.08203125 C-19.13042361 -7.61082368 -8.51246352 -7.0937196 0 0 Z " fill="#F3E5DA" transform="translate(642,663)"/>
<path d="M0 0 C0 0.66 0 1.32 0 2 C0.6290625 1.97679687 1.258125 1.95359375 1.90625 1.9296875 C15.32004249 1.64686657 15.32004249 1.64686657 20.5625 6.25 C22.37922732 9.72547835 21.93598546 11.25605817 21 15 C21.020625 15.825 21.04125 16.65 21.0625 17.5 C20.98457375 20.61705008 20.00200421 23.0529288 19 26 C18.62468554 28.32694964 18.28082798 30.65976685 18 33 C17.34 33 16.68 33 16 33 C15.896875 34.175625 15.79375 35.35125 15.6875 36.5625 C15.26116065 40.05239212 14.28186041 42.73722736 12.765625 45.92578125 C11.10822064 50.41599408 10.6590765 55.2779107 10 60 C9.34 60 8.68 60 8 60 C7.90912109 61.12148438 7.90912109 61.12148438 7.81640625 62.265625 C7.73261719 63.25046875 7.64882813 64.2353125 7.5625 65.25 C7.48128906 66.22453125 7.40007812 67.1990625 7.31640625 68.203125 C7.04925416 70.56461753 6.64628032 72.71901065 6 75 C5.34 75 4.68 75 4 75 C3.938125 75.556875 3.87625 76.11375 3.8125 76.6875 C2.30592864 80.97543386 -1.0147612 83.33553663 -4.6875 85.8125 C-10.05257671 87.73582939 -15.27591185 87.60535292 -20.8125 86.375 C-23.90603425 84.43049276 -25.88730878 81.91663567 -28 79 C-28.50917969 78.31421875 -29.01835937 77.6284375 -29.54296875 76.921875 C-33.15860393 71.81534827 -35.29330352 66.99039161 -37 61 C-37.391875 59.906875 -37.78375 58.81375 -38.1875 57.6875 C-39 55 -39 55 -39 51 C-39.66 51 -40.32 51 -41 51 C-42.34426712 48.00476403 -43.67507499 45.00383761 -45 42 C-45.4125 41.071875 -45.825 40.14375 -46.25 39.1875 C-47 37 -47 37 -47 33 C-47.66 33 -48.32 33 -49 33 C-49.13277344 32.11957031 -49.26554687 31.23914063 -49.40234375 30.33203125 C-49.57894531 29.17058594 -49.75554687 28.00914062 -49.9375 26.8125 C-50.11152344 25.66394531 -50.28554688 24.51539063 -50.46484375 23.33203125 C-50.78815424 21.31901046 -51.16293329 19.31205945 -51.6328125 17.328125 C-52.25264459 13.3981258 -50.93587475 10.394898 -49 7 C-44.81583658 3.12199488 -40.54431103 2.26941895 -35.07421875 1.39453125 C-33.0172808 1.20478904 -33.0172808 1.20478904 -32 0 C-29.63715911 -0.27368813 -27.30926961 -0.47717885 -24.9375 -0.625 C-24.23173828 -0.67003662 -23.52597656 -0.71507324 -22.79882812 -0.76147461 C-15.15414126 -1.16787319 -7.61631326 -0.65832495 0 0 Z " fill="#010101" transform="translate(367,709)"/>
<path d="M0 0 C-0.78281305 1.33855056 -1.57651877 2.67073644 -2.375 4 C-3.03628906 5.11375 -3.03628906 5.11375 -3.7109375 6.25 C-4.13632812 6.8275 -4.56171875 7.405 -5 8 C-5.66 8 -6.32 8 -7 8 C-7.33 8.99 -7.66 9.98 -8 11 C-8.66 11 -9.32 11 -10 11 C-10.144375 11.598125 -10.28875 12.19625 -10.4375 12.8125 C-11.71320755 17.77358491 -11.71320755 17.77358491 -14.375 19.875 C-17.06994213 22.05661982 -18.27600147 24.04457394 -20 27 C-20.66 27 -21.32 27 -22 27 C-22.0825 27.53625 -22.165 28.0725 -22.25 28.625 C-23.27581271 31.87340691 -24.96563894 34.28751859 -27 37 C-27.66 37 -28.32 37 -29 37 C-29.66 38.65 -30.32 40.3 -31 42 C-31.66 42 -32.32 42 -33 42 C-33.103125 42.598125 -33.20625 43.19625 -33.3125 43.8125 C-34.10494321 46.33391022 -35.11943508 47.19465768 -37 49 C-38.17574711 51.09989652 -38.17574711 51.09989652 -39 53 C-39.66 53 -40.32 53 -41 53 C-41.103125 53.639375 -41.20625 54.27875 -41.3125 54.9375 C-41.539375 55.618125 -41.76625 56.29875 -42 57 C-42.99 57.33 -43.98 57.66 -45 58 C-45.3449145 59.33038449 -45.67516582 60.66457061 -46 62 C-47.9375 65.25 -47.9375 65.25 -50 68 C-50.66 68 -51.32 68 -52 68 C-52.144375 68.598125 -52.28875 69.19625 -52.4375 69.8125 C-52.8872439 71.56150404 -53.42892341 73.28677023 -54 75 C-54.99 75.495 -54.99 75.495 -56 76 C-56.495 77.485 -56.495 77.485 -57 79 C-57.66 79 -58.32 79 -59 79 C-59.2475 79.845625 -59.495 80.69125 -59.75 81.5625 C-61.13973627 85.38427474 -62.91120838 88.51868063 -65 92 C-65.66 92 -66.32 92 -67 92 C-67.144375 92.94875 -67.28875 93.8975 -67.4375 94.875 C-68 98 -68 98 -69 100 C-69.66 100 -70.32 100 -71 100 C-71.061875 100.804375 -71.12375 101.60875 -71.1875 102.4375 C-72.26536993 107.1635451 -74.51591419 110.87513427 -77 115 C-77.66 115 -78.32 115 -79 115 C-79.0825 115.598125 -79.165 116.19625 -79.25 116.8125 C-80.22947811 119.66931115 -81.43701668 120.46221001 -84 122 C-86.72420842 123.14240998 -87.8001925 123.05576023 -90.6875 122.25 C-93 121 -93 121 -94 118 C-94.60507946 107.05228317 -93.63674997 97.90578403 -89 88 C-88.34 88 -87.68 88 -87 88 C-86.95875 87.21625 -86.9175 86.4325 -86.875 85.625 C-85.40530953 79.53628232 -81.87051846 73.08538024 -77 69 C-76.34 69 -75.68 69 -75 69 C-74.9175 68.4225 -74.835 67.845 -74.75 67.25 C-73.79421474 64.38264421 -72.14915257 63.08199155 -70 61 C-69.67 60.01 -69.34 59.02 -69 58 C-68.01 57.505 -68.01 57.505 -67 57 C-66.33871094 55.87464844 -66.33871094 55.87464844 -65.6640625 54.7265625 C-63.86656083 51.78136023 -61.87388247 49.74364755 -59.375 47.375 C-55.93038126 44.18362611 -55.93038126 44.18362611 -54 40 C-52.5479183 38.7789313 -51.09178034 37.56197656 -49.60546875 36.3828125 C-47.74347839 34.85658828 -47.74347839 34.85658828 -45.5625 32.0625 C-43.11577991 29.13837111 -40.61272096 26.91805487 -37.69140625 24.5078125 C-36.06668854 23.05944983 -34.77498587 21.58663786 -33.4375 19.875 C-30.86296537 16.83836941 -28.36017246 15.10010779 -25 13 C-22.44430716 11.05280546 -20.19367618 9.21866665 -18.0625 6.8125 C-15.44908211 4.51586003 -13.41079876 4.31007261 -10 4 C-10 3.34 -10 2.68 -10 2 C-6.49223216 0.39644899 -3.85645121 -0.22036864 0 0 Z " fill="#030303" transform="translate(476,330)"/>
<path d="M0 0 C0.495 0.495 0.495 0.495 1 1 C0.96159938 3.06477174 0.84339697 5.12826396 0.6875 7.1875 C0.60886719 8.31542969 0.53023438 9.44335938 0.44921875 10.60546875 C0.0033698 13.974536 -0.84980229 16.81180938 -2 20 C-2.39372747 21.45338907 -2.77168394 22.91126202 -3.125 24.375 C-3.558125 26.169375 -3.558125 26.169375 -4 28 C-4.66 28 -5.32 28 -6 28 C-6.0825 29.299375 -6.165 30.59875 -6.25 31.9375 C-6.81723574 37.82997878 -8.19413543 43.46741618 -9.62792969 49.19702148 C-10.3759544 52.20867878 -11 54.8831457 -11 58 C-13.475 58.495 -13.475 58.495 -16 59 C-16 59.66 -16 60.32 -16 61 C-19.125 61.4375 -19.125 61.4375 -23 61 C-30.68605412 55.08625953 -34.29544843 43.90487991 -37 35 C-37 34.01 -37 33.02 -37 32 C-37.66 32 -38.32 32 -39 32 C-40.13764351 27.73383684 -41 24.43513689 -41 20 C-41.66 20 -42.32 20 -43 20 C-44.25664978 17.09399739 -45 15.20395416 -45 12 C-45.66 12 -46.32 12 -47 12 C-47.33 9.03 -47.66 6.06 -48 3 C-46.82630859 2.80083984 -46.82630859 2.80083984 -45.62890625 2.59765625 C-44.61699219 2.42105469 -43.60507812 2.24445312 -42.5625 2.0625 C-41.55316406 1.88847656 -40.54382813 1.71445312 -39.50390625 1.53515625 C-37.0712562 1.25248903 -37.0712562 1.25248903 -36 0 C-9.9403448 -4.95169592 -9.9403448 -4.95169592 0 0 Z " fill="#FCC9D1" transform="translate(375,723)"/>
<path d="M0 0 C6.31727141 0.1178211 12.63437672 0.24264764 18.95141602 0.37231445 C21.0998217 0.41559052 23.24826015 0.45727073 25.39672852 0.49731445 C28.48724232 0.5551946 31.5775923 0.61883792 34.66796875 0.68359375 C35.62648239 0.70030624 36.58499603 0.71701874 37.57255554 0.73423767 C38.47311172 0.75418289 39.37366791 0.77412811 40.30151367 0.79467773 C41.48398933 0.81799416 41.48398933 0.81799416 42.69035339 0.84178162 C45.19294422 1.01321731 47.55274358 1.45963861 50 2 C49.69467865 5.31320331 49.37954424 8.62539955 49.0625 11.9375 C48.97548828 12.88302734 48.88847656 13.82855469 48.79882812 14.80273438 C48.71181641 15.70185547 48.62480469 16.60097656 48.53515625 17.52734375 C48.456604 18.35999756 48.37805176 19.19265137 48.29711914 20.05053711 C48 22 48 22 47 23 C46.62911153 24.61684194 46.30256403 26.24399077 46 27.875 C45.47337663 30.69737213 44.9099394 33.27018179 44 36 C43.34 36 42.68 36 42 36 C41.9175 36.639375 41.835 37.27875 41.75 37.9375 C40.7122154 42.17512044 39.09704967 46.16991683 37 50 C36.01 50.495 36.01 50.495 35 51 C34.67 51.99 34.34 52.98 34 54 C33.01 54.495 33.01 54.495 32 55 C31.5875 56.0725 31.175 57.145 30.75 58.25 C29.04683708 62.49052808 26.62493967 64.28129525 23 67 C22.46375 67.5775 21.9275 68.155 21.375 68.75 C19.66897653 70.30093043 18.22198352 70.51025669 16 71 C16.0714624 70.45939941 16.1429248 69.91879883 16.21655273 69.36181641 C17.15315304 61.37003912 17.1131175 53.40694657 17.0625 45.375 C17.05747197 43.97526203 17.05291138 42.5755223 17.04882812 41.17578125 C17.03713167 37.78380831 17.02074086 34.39192767 17 31 C16.34 31 15.68 31 15 31 C14.80664062 30.19175781 14.61328125 29.38351562 14.4140625 28.55078125 C14.15367187 27.48214844 13.89328125 26.41351562 13.625 25.3125 C13.36976563 24.25675781 13.11453125 23.20101562 12.8515625 22.11328125 C12.07617907 19.27850787 11.25434983 16.6571151 10 14 C9.34 13.67 8.68 13.34 8 13 C6.95635831 11.78619934 5.96200715 10.52946951 5 9.25 C4.484375 8.57453125 3.96875 7.8990625 3.4375 7.203125 C1.92110024 4.87907754 0.99509333 2.58275834 0 0 Z " fill="#F2E5DA" transform="translate(653,653)"/>
<path d="M0 0 C1.89453125 2.02734375 1.89453125 2.02734375 3 4 C2.34 4 1.68 4 1 4 C1.061875 5.051875 1.12375 6.10375 1.1875 7.1875 C0.992078 11.16108064 0.4326186 12.91244563 -2 16 C-2.66 16 -3.32 16 -4 16 C-4.33 16.99 -4.66 17.98 -5 19 C-5.52207031 19.46019531 -6.04414062 19.92039062 -6.58203125 20.39453125 C-8.23796232 21.92587741 -8.23796232 21.92587741 -8.07421875 24.26171875 C-7.88279297 25.46248047 -7.88279297 25.46248047 -7.6875 26.6875 C-7.56761719 27.49574219 -7.44773437 28.30398438 -7.32421875 29.13671875 C-7.21722656 29.75160156 -7.11023438 30.36648438 -7 31 C-6.34 31 -5.68 31 -5 31 C-5 34.63 -5 38.26 -5 42 C-2.525 41.505 -2.525 41.505 0 41 C0.33 40.01 0.66 39.02 1 38 C5.43424223 35.14941571 8.7837917 34.6870275 14 35 C15.28571429 42.42857143 15.28571429 42.42857143 14 46 C13.34 46 12.68 46 12 46 C11.67 47.98 11.34 49.96 11 52 C10.01 52.33 9.02 52.66 8 53 C7.26676204 55.01508358 7.26676204 55.01508358 7 57 C6.34 57 5.68 57 5 57 C4.896875 57.5775 4.79375 58.155 4.6875 58.75 C3.89875275 61.33135463 2.64213978 62.87890278 1 65 C0.67 65.99 0.34 66.98 0 68 C-2.32595946 69.16297973 -3.78723231 69.16600691 -6.375 69.1875 C-7.53128906 69.20876953 -7.53128906 69.20876953 -8.7109375 69.23046875 C-11.21834888 68.97801607 -12.83261902 68.25193467 -15 67 C-15 66.34 -15 65.68 -15 65 C-16.32 64.34 -17.64 63.68 -19 63 C-19 62.01 -19 61.02 -19 60 C-19.66 60 -20.32 60 -21 60 C-22.31626692 56.38026598 -23 53.90432869 -23 50 C-23.66 50 -24.32 50 -25 50 C-25 47.03 -25 44.06 -25 41 C-24.34 41 -23.68 41 -23 41 C-23 37.7 -23 34.4 -23 31 C-23.99 30.67 -24.98 30.34 -26 30 C-26 29.01 -26 28.02 -26 27 C-26.639375 26.896875 -27.27875 26.79375 -27.9375 26.6875 C-28.618125 26.460625 -29.29875 26.23375 -30 26 C-31.36230612 21.91308163 -31.60227567 18.04773726 -30.375 13.875 C-28.71230676 11.60769104 -26.70861408 9.95956085 -24.5078125 8.2265625 C-22.84473281 6.92898473 -22.84473281 6.92898473 -21 4.875 C-15.10076729 -0.65553067 -7.79714517 -1.32207935 0 0 Z " fill="#010101" transform="translate(633,681)"/>
<path d="M0 0 C0.66 0.33 1.32 0.66 2 1 C1.99476318 1.76030518 1.98952637 2.52061035 1.98413086 3.30395508 C1.96312074 6.8067947 1.95026426 10.309621 1.9375 13.8125 C1.92912109 15.00810547 1.92074219 16.20371094 1.91210938 17.43554688 C1.89447257 23.90825384 2.10852584 30.25024181 2.77514648 36.6887207 C3.03535664 39.36343251 3.10143321 42.00110869 3.0625 44.6875 C3.05347656 45.51636719 3.04445313 46.34523438 3.03515625 47.19921875 C3.02355469 47.79347656 3.01195312 48.38773437 3 49 C3.66 49 4.32 49 5 49 C5.33851178 51.68693722 5.670936 54.37440289 6 57.0625 C6.09539062 57.81466797 6.19078125 58.56683594 6.2890625 59.34179688 C6.84571902 63.93421317 7.09829028 68.3742135 7 73 C7.66 73 8.32 73 9 73 C9.3396019 74.87387477 9.67138691 76.74916697 10 78.625 C10.185625 79.66914063 10.37125 80.71328125 10.5625 81.7890625 C10.98715797 84.90574865 11.07545206 87.85930812 11 91 C11.66 91 12.32 91 13 91 C13.33 93.31 13.66 95.62 14 98 C14.66 98 15.32 98 16 98 C17.69432851 104.26296433 18.79768135 110.5012431 18 117 C16 120 16 120 14.01171875 120.50390625 C7.87804878 120.65853659 7.87804878 120.65853659 5.296875 118.72265625 C2 114.84788075 2 114.84788075 2 112 C1.34 112 0.68 112 0 112 C-0.495 109.03 -0.495 109.03 -1 106 C-1.66 106 -2.32 106 -3 106 C-4.43794854 97.92437827 -5.29599372 90.2056037 -5 82 C-5.66 82 -6.32 82 -7 82 C-11.74975395 25.44508395 -11.74975395 25.44508395 -7 8 C-6.34 7.67 -5.68 7.34 -5 7 C-3.98133771 5.34467377 -2.98189187 3.67739862 -2 2 C-1.34 1.34 -0.68 0.68 0 0 Z " fill="#020202" transform="translate(288,354)"/>
<path d="M0 0 C0.66 0 1.32 0 2 0 C2 0.66 2 1.32 2 2 C2.763125 2.144375 3.52625 2.28875 4.3125 2.4375 C7 3 7 3 10 4 C10 4.66 10 5.32 10 6 C10.86625 6.0825 11.7325 6.165 12.625 6.25 C16.47734858 7.10607746 18.848219 8.67368546 22 11 C21.01 13.97 20.02 16.94 19 20 C18.34 20 17.68 20 17 20 C16.855625 21.2375 16.71125 22.475 16.5625 23.75 C16.21311498 26.56504499 15.79620634 29.2701497 15 32 C14.34 32 13.68 32 13 32 C12.505 36.95 12.505 36.95 12 42 C11.34 42 10.68 42 10 42 C9.90912109 42.92232422 9.90912109 42.92232422 9.81640625 43.86328125 C9.73261719 44.67152344 9.64882813 45.47976563 9.5625 46.3125 C9.48128906 47.11300781 9.40007813 47.91351562 9.31640625 48.73828125 C9 51 9 51 8 54 C3.41321809 55.9629023 -0.64586301 53.73714274 -5 52 C-7.02081924 51.04276983 -9.03120677 50.06011943 -11 49 C-11 48.34 -11 47.68 -11 47 C-11.53625 46.9175 -12.0725 46.835 -12.625 46.75 C-15.82904327 45.73819686 -18.23377725 43.8833857 -21 42 C-21.99 41.67 -22.98 41.34 -24 41 C-24 40.34 -24 39.68 -24 39 C-28.29 38.34 -32.58 37.68 -37 37 C-37 36.01 -37 35.02 -37 34 C-36.34 34 -35.68 34 -35 34 C-35 29.05 -35 24.1 -35 19 C-30.43694691 20.14076327 -28.31441952 22.2083368 -25.0625 25.375 C-22.22286727 28.11819237 -19.5288703 30.68282134 -16.12109375 32.7265625 C-15.42113281 33.14679687 -14.72117187 33.56703125 -14 34 C-14 34.66 -14 35.32 -14 36 C-9.85969567 35.75645269 -7.4968723 35.36725344 -4.125 32.875 C0.26959118 26.92937664 -0.70830523 18.21442179 -0.4375 11.0625 C-0.37272461 9.46438477 -0.37272461 9.46438477 -0.30664062 7.83398438 C-0.20125511 5.22276557 -0.09912912 2.61146254 0 0 Z " fill="#F6F6F5" transform="translate(785,544)"/>
<path d="M0 0 C2.5 1.5625 2.5 1.5625 4 4 C4.83674882 11.6701975 1.74508534 16.63335492 -2 23 C-2.66 23 -3.32 23 -4 23 C-4.06445312 23.54527344 -4.12890625 24.09054687 -4.1953125 24.65234375 C-5.34928161 28.01902062 -7.45048206 29.97986133 -9.875 32.5625 C-10.75929688 33.51253906 -11.64359375 34.46257812 -12.5546875 35.44140625 C-13.76511719 36.70791016 -13.76511719 36.70791016 -15 38 C-15.53882813 38.60714844 -16.07765625 39.21429688 -16.6328125 39.83984375 C-18 41 -18 41 -21 41 C-21 38.69 -21 36.38 -21 34 C-20.34 34 -19.68 34 -19 34 C-18.95101562 33.33613281 -18.90203125 32.67226563 -18.8515625 31.98828125 C-18.10896309 23.21792619 -18.10896309 23.21792619 -16 19 C-15.34 19 -14.68 19 -14 19 C-14 17.68 -14 16.36 -14 15 C-15.65 15 -17.3 15 -19 15 C-19 15.66 -19 16.32 -19 17 C-23.26616316 18.13764351 -26.56486311 19 -31 19 C-31 19.66 -31 20.32 -31 21 C-31.56847656 21.18175781 -32.13695312 21.36351562 -32.72265625 21.55078125 C-36.5174852 22.78615962 -40.23299855 24.04976916 -43.875 25.6875 C-47 27 -47 27 -50 27 C-50 27.66 -50 28.32 -50 29 C-51.72521463 29.39278091 -53.45546248 29.76349151 -55.1875 30.125 C-56.63189453 30.43824219 -56.63189453 30.43824219 -58.10546875 30.7578125 C-61.39635167 31.03316303 -63.13697369 30.61778849 -66 29 C-67.0704232 25.40643641 -67.19105377 23.5731613 -66 20 C-64.2578125 18.61328125 -64.2578125 18.61328125 -62.125 17.3125 C-61.42632813 16.87550781 -60.72765625 16.43851562 -60.0078125 15.98828125 C-58 15 -58 15 -55 15 C-55 14.34 -55 13.68 -55 13 C-51.12315913 11.80712589 -48.08378077 11 -44 11 C-44 10.34 -44 9.68 -44 9 C-42.27192682 8.66104344 -40.54248026 8.32908475 -38.8125 8 C-37.84957031 7.814375 -36.88664063 7.62875 -35.89453125 7.4375 C-33.2065794 7.03122388 -30.71228981 6.92066428 -28 7 C-28 6.34 -28 5.68 -28 5 C-26.89140625 4.80664062 -25.7828125 4.61328125 -24.640625 4.4140625 C-23.17702524 4.15136511 -21.71348673 3.88832633 -20.25 3.625 C-19.15558594 3.43550781 -19.15558594 3.43550781 -18.0390625 3.2421875 C-0.10951897 -0.01772951 -0.10951897 -0.01772951 0 0 Z " fill="#020202" transform="translate(583,365)"/>
<path d="M0 0 C-0.66 3.3 -1.32 6.6 -2 10 C-2.66 10 -3.32 10 -4 10 C-4.33 12.97 -4.66 15.94 -5 19 C-5.66 19 -6.32 19 -7 19 C-7.09087891 20.918125 -7.09087891 20.918125 -7.18359375 22.875 C-7.26807216 24.5833411 -7.35271641 26.29167401 -7.4375 28 C-7.47681641 28.83917969 -7.51613281 29.67835938 -7.55664062 30.54296875 C-7.81851332 35.74013458 -8.2899352 40.84457153 -9 46 C-9.66 46 -10.32 46 -11 46 C-10.98839844 46.62946533 -10.97679687 47.25893066 -10.96484375 47.9074707 C-10.88599519 55.70995828 -11.37969329 63.41270976 -12 71.1875 C-12.14308594 73.0447168 -12.14308594 73.0447168 -12.2890625 74.93945312 C-12.52230525 77.95994678 -12.75935432 80.98008869 -13 84 C-13.66 84 -14.32 84 -15 84 C-15.144375 85.134375 -15.28875 86.26875 -15.4375 87.4375 C-16 91 -16 91 -17 92 C-24.20570265 92.59063136 -24.20570265 92.59063136 -27.4375 90.1875 C-30.3800478 86.06793308 -30.1515891 82.10694299 -30.125 77.25 C-30.12886719 76.5590625 -30.13273437 75.868125 -30.13671875 75.15625 C-30.12829245 70.67346035 -29.72949422 66.4232824 -29 62 C-28.34 62 -27.68 62 -27 62 C-26.93941406 61.04738281 -26.87882812 60.09476562 -26.81640625 59.11328125 C-26.73261719 57.85902344 -26.64882813 56.60476563 -26.5625 55.3125 C-26.48128906 54.07113281 -26.40007812 52.82976562 -26.31640625 51.55078125 C-26.05508683 48.61819663 -25.65201621 45.86558383 -25 43 C-24.34 43 -23.68 43 -23 43 C-22.93941406 42.25234375 -22.87882812 41.5046875 -22.81640625 40.734375 C-22.73261719 39.74953125 -22.64882813 38.7646875 -22.5625 37.75 C-22.48128906 36.77546875 -22.40007812 35.8009375 -22.31640625 34.796875 C-22.04925416 32.43538247 -21.64628032 30.28098935 -21 28 C-20.34 28 -19.68 28 -19 28 C-18.67 25.69 -18.34 23.38 -18 21 C-17.34 21 -16.68 21 -16 21 C-15.9071875 19.515 -15.9071875 19.515 -15.8125 18 C-14.73965518 10.72523036 -10.07447958 5.6470686 -4.6484375 1.03125 C-3 0 -3 0 0 0 Z " fill="#020202" transform="translate(363,364)"/>
<path d="M0 0 C2.50331638 0.00537402 5.00645458 0.00002085 7.50976562 -0.00634766 C9.12434935 -0.00568702 10.73893296 -0.00440615 12.35351562 -0.00244141 C13.09018463 -0.00446564 13.82685364 -0.00648987 14.58584595 -0.00857544 C19.42823111 0.0129873 24.08147406 0.45031935 28.87695312 1.13037109 C28.87695312 1.79037109 28.87695312 2.45037109 28.87695312 3.13037109 C32.17695312 3.13037109 35.47695313 3.13037109 38.87695312 3.13037109 C38.87695312 4.12037109 38.87695312 5.11037109 38.87695312 6.13037109 C31.51654396 6.92763011 24.27934958 7.25923293 16.87695312 7.13037109 C16.87695312 7.79037109 16.87695312 8.45037109 16.87695312 9.13037109 C14.35675341 9.46922148 11.83596797 9.80157444 9.31445312 10.13037109 C8.60998047 10.22576172 7.90550781 10.32115234 7.1796875 10.41943359 C2.70327457 10.99703526 -1.60965926 11.22526492 -6.12304688 11.13037109 C-6.12304688 11.79037109 -6.12304688 12.45037109 -6.12304688 13.13037109 C-8.47649494 13.46960685 -10.83059528 13.80187643 -13.18554688 14.13037109 C-13.84232422 14.22576172 -14.49910156 14.32115234 -15.17578125 14.41943359 C-19.5244345 15.01924784 -23.73633758 15.22164203 -28.12304688 15.13037109 C-28.12304688 15.79037109 -28.12304688 16.45037109 -28.12304688 17.13037109 C-37.19271369 17.90925469 -37.19271369 17.90925469 -40.81054688 14.88037109 C-42.12304688 12.13037109 -42.12304688 12.13037109 -42.06054688 10.00537109 C-40.52770926 6.93969586 -38.8998761 5.5403643 -35.87304688 3.94287109 C-32.53512884 2.95666804 -29.58509963 2.99460432 -26.12304688 3.13037109 C-26.12304688 2.47037109 -26.12304688 1.81037109 -26.12304688 1.13037109 C-17.40570133 0.01185222 -8.77273053 -0.02243224 0 0 Z " fill="#030303" transform="translate(619.123046875,391.86962890625)"/>
<path d="M0 0 C6.31727141 0.1178211 12.63437672 0.24264764 18.95141602 0.37231445 C21.0998217 0.41559052 23.24826015 0.45727073 25.39672852 0.49731445 C28.48724232 0.5551946 31.5775923 0.61883792 34.66796875 0.68359375 C35.62648239 0.70030624 36.58499603 0.71701874 37.57255554 0.73423767 C38.47311172 0.75418289 39.37366791 0.77412811 40.30151367 0.79467773 C41.48398933 0.81799416 41.48398933 0.81799416 42.69035339 0.84178162 C45.19294422 1.01321731 47.55274358 1.45963861 50 2 C49.69467865 5.31320331 49.37954424 8.62539955 49.0625 11.9375 C48.97548828 12.88302734 48.88847656 13.82855469 48.79882812 14.80273438 C48.71181641 15.70185547 48.62480469 16.60097656 48.53515625 17.52734375 C48.456604 18.35999756 48.37805176 19.19265137 48.29711914 20.05053711 C48 22 48 22 47 23 C46.62911153 24.61684194 46.30256403 26.24399077 46 27.875 C45.47337663 30.69737213 44.9099394 33.27018179 44 36 C43.34 36 42.68 36 42 36 C41.814375 37.2065625 41.814375 37.2065625 41.625 38.4375 C41.41875 39.283125 41.2125 40.12875 41 41 C40.01 41.495 40.01 41.495 39 42 C39.66 39.69 40.32 37.38 41 35 C41.66 35 42.32 35 43 35 C43.13277344 34.07316406 43.26554688 33.14632812 43.40234375 32.19140625 C43.57894531 30.99386719 43.75554688 29.79632812 43.9375 28.5625 C44.11152344 27.36753906 44.28554688 26.17257812 44.46484375 24.94140625 C45 22 45 22 46 21 C46.37514918 18.35343976 46.7061971 15.71820275 47 13.0625 C47.86703911 5.26592179 47.86703911 5.26592179 49 3 C33.82 3 18.64 3 3 3 C5.475 5.97 5.475 5.97 8 9 C8.33 9.99 8.66 10.98 9 12 C8.34 12 7.68 12 7 12 C5.61558 10.03501678 4.28796166 8.02951535 3 6 C2.4225 5.2575 1.845 4.515 1.25 3.75 C0 2 0 2 0 0 Z " fill="#C4BCB4" transform="translate(653,653)"/>
<path d="M0 0 C0.33 0 0.66 0 1 0 C1.02921779 4.02081788 1.04687188 8.04160814 1.0625 12.0625 C1.07087891 13.19623047 1.07925781 14.32996094 1.08789062 15.49804688 C1.10424847 21.10878867 1.01812097 26.47649331 0 32 C0.66 32.33 1.32 32.66 2 33 C0.02 33.495 0.02 33.495 -2 34 C-1.90150757 33.13689209 -1.90150757 33.13689209 -1.80102539 32.25634766 C-1.05156516 25.30130169 -0.6964989 18.36372454 -0.4375 11.375 C-0.39431641 10.27542969 -0.35113281 9.17585937 -0.30664062 8.04296875 C-0.20173594 5.36207118 -0.09957274 2.68109999 0 0 Z " fill="#C7BFB7" transform="translate(671,690)"/>
<path d="M0 0 C-1.98 1.32 -3.96 2.64 -6 4 C-5.01 4.66 -4.02 5.32 -3 6 C-5.31 6 -7.62 6 -10 6 C-10 5.01 -10 4.02 -10 3 C-3.375 -1.125 -3.375 -1.125 0 0 Z " fill="#D7D7D7" transform="translate(152,505)"/>
<path d="M0 0 C1.98 0.99 1.98 0.99 4 2 C4 2.66 4 3.32 4 4 C5.32810215 5.67083819 6.66172696 7.33729713 8 9 C8.33 9.99 8.66 10.98 9 12 C8.34 12 7.68 12 7 12 C5.61558 10.03501678 4.28796166 8.02951535 3 6 C2.4225 5.2575 1.845 4.515 1.25 3.75 C0 2 0 2 0 0 Z " fill="#B7B1AB" transform="translate(653,653)"/>
</svg>
